<svg xmlns="http://www.w3.org/2000/svg" version="1.1" xmlns:xlink="http://www.w3.org/1999/xlink" xmlns:svgjs="http://svgjs.dev/svgjs" width="1440" height="560" preserveAspectRatio="none" viewBox="0 0 1440 560"><g mask="url(&quot;#SvgjsMask1018&quot;)" fill="none"><path d="M1512 560L0 560 L0 318.96Q53.18 300.14, 72 353.32Q107.22 268.54, 192 303.77Q243.06 282.83, 264 333.89Q329.21 279.1, 384 344.3Q426.94 267.24, 504 310.18Q587.39 273.57, 624 356.96Q645.68 306.64, 696 328.32Q745.34 257.65, 816 306.99Q874.32 293.31, 888 351.64Q955.46 299.1, 1008 366.56Q1045.35 283.9, 1128 321.25Q1177.27 298.52, 1200 347.79Q1272.17 299.96, 1320 372.13Q1335.02 315.15, 1392 330.18Q1444.38 262.56, 1512 314.95z" fill="#7149F622"></path><path d="M1488 560L0 560 L0 445.14Q-7.82 365.31, 72 357.49Q167.54 333.03, 192 428.57Q205.63 370.2, 264 383.83Q306.87 354.69, 336 397.56Q385.38 374.94, 408 424.33Q444.39 340.72, 528 377.1Q581.51 358.62, 600 412.13Q648.1 388.23, 672 436.32Q690.52 334.85, 792 353.37Q863.42 304.79, 912 376.21Q956.16 348.38, 984 392.54Q1030.23 366.77, 1056 413Q1132.43 369.44, 1176 445.87Q1213.5 363.37, 1296 400.87Q1349.7 334.57, 1416 388.27Q1446.47 346.74, 1488 377.2z" fill="#7149F622"></path><path d="M1512 560L0 560 L0 477.39Q40.39 397.78, 120 438.17Q149.27 395.44, 192 424.71Q281.32 394.03, 312 483.36Q354.21 453.57, 384 495.78Q408.7 448.48, 456 473.18Q496.03 393.21, 576 433.23Q621.63 406.87, 648 452.5Q739.37 423.87, 768 515.23Q785.16 460.39, 840 477.55Q875.95 393.5, 960 429.45Q1005.78 403.23, 1032 449Q1100.07 445.07, 1104 513.14Q1120.72 457.86, 1176 474.58Q1206.63 433.21, 1248 463.84Q1324.79 420.63, 1368 497.42Q1409.85 467.27, 1440 509.12Q1443.16 440.28, 1512 443.44z" fill="#7149F655"></path><path d="M1512 560L0 560 L0 534.08Q37.15 499.24, 72 536.39Q114.16 458.55, 192 500.71Q239.69 476.39, 264 524.08Q351.32 491.4, 384 578.72Q387.36 510.08, 456 513.44Q481.05 466.5, 528 491.55Q587.09 478.64, 600 537.73Q654.83 472.56, 720 527.39Q767.68 503.07, 792 550.75Q857.43 496.18, 912 561.62Q925.1 502.72, 984 515.82Q1026.78 486.61, 1056 529.39Q1122.31 475.7, 1176 542.02Q1229.66 523.68, 1248 577.35Q1267.26 476.62, 1368 495.88Q1413.15 469.04, 1440 514.19Q1489.79 491.98, 1512 541.76z" fill="#7149F677"></path></g><defs><mask id="SvgjsMask1018"><rect width="1440" height="560" fill="#ffffff"></rect></mask></defs></svg>