<svg width="41" height="40" viewBox="0 0 41 40" fill="none" xmlns="http://www.w3.org/2000/svg">
<g clip-path="url(#clip0_2_126)">
<path d="M26.1744 8.84375C26.5461 9.40881 26.389 10.1681 25.8237 10.5396C25.5429 10.7242 25.2786 10.9419 25.0383 11.1869C24.7985 11.4313 24.4812 11.554 24.1636 11.554C23.8542 11.554 23.5444 11.4375 23.306 11.2037C22.823 10.7301 22.8155 9.95485 23.2891 9.47208C23.6515 9.10277 24.0514 8.77338 24.4778 8.49314C25.0433 8.12171 25.8028 8.27869 26.1744 8.84375ZM36.8248 23.3362C36.7019 23.4616 24.6747 35.7202 24.6747 35.7202C23.5164 36.9008 21.9746 37.551 20.3333 37.551C18.6919 37.551 17.1501 36.9008 15.9918 35.7202L3.84166 23.3362C-0.836218 18.5684 -0.836218 10.8104 3.84166 6.04261C6.11529 3.72522 9.13995 2.44897 12.3586 2.44897C15.3275 2.44897 18.1316 3.53502 20.3333 5.52228C22.535 3.53502 25.339 2.44897 28.3079 2.44897C31.5265 2.44897 34.5512 3.72522 36.8248 6.04253C41.5027 10.8104 41.5027 18.5684 36.8248 23.3362ZM35.0758 7.75738C33.2666 5.91346 30.8631 4.89795 28.3079 4.89795C25.7528 4.89795 23.3492 5.91338 21.5401 7.7573C21.4485 7.85069 21.3663 7.96408 21.2513 8.06563C20.6361 8.60881 19.9148 8.58155 19.4153 8.06563C19.3085 7.95526 19.2181 7.85069 19.1265 7.7573C17.3173 5.91346 14.9138 4.89795 12.3586 4.89795C9.80338 4.89795 7.39986 5.91338 5.59072 7.7573C1.84052 11.5797 1.84052 17.7991 5.59072 21.6215C5.70231 21.7352 17.7408 34.0055 17.7408 34.0055C18.4346 34.7126 19.3553 35.102 20.3333 35.102C21.3112 35.102 22.2319 34.7126 22.9257 34.0055L35.0758 21.6215C38.8259 17.7992 38.8259 11.5798 35.0758 7.75738ZM33.3266 9.47216C32.594 8.72538 31.7368 8.16236 30.7791 7.79877C30.1467 7.55885 29.4392 7.87657 29.199 8.50881C28.9589 9.14097 29.2768 9.84816 29.9093 10.0882C30.5334 10.3251 31.0947 10.6949 31.5776 11.1869C33.4724 13.1182 33.4724 16.2606 31.5776 18.1919L27.2798 22.5724C26.8061 23.0553 26.8136 23.8305 27.2966 24.304C27.535 24.5377 27.8447 24.6543 28.1542 24.6543C28.4717 24.6543 28.789 24.5317 29.0288 24.2872L33.3266 19.9067C36.1491 17.0299 36.1491 12.349 33.3266 9.47216Z" fill="#E6E6E6"/>
</g>
<defs>
<clipPath id="clip0_2_126">
<rect width="40" height="40" fill="white" transform="translate(0.333252)"/>
</clipPath>
</defs>
</svg>
