<svg width="30" height="30" viewBox="0 0 30 30" fill="none" xmlns="http://www.w3.org/2000/svg">
<g clip-path="url(#clip0_2_105)">
<path d="M29.9199 18.2905C29.8229 18.1225 29.6504 18.012 29.4572 17.9942C29.3316 17.9827 26.6927 17.7549 23.6382 18.6563C25.1808 14.742 24.8623 11.006 24.8454 10.8232C24.8276 10.6301 24.7172 10.4575 24.5491 10.3605C24.3812 10.2636 24.1765 10.2541 24.0003 10.3354C23.8611 10.3995 20.8934 11.7885 18.3606 14.6555C17.6403 10.6191 15.5927 7.68117 15.4878 7.53281C15.3758 7.37443 15.1939 7.28027 14.9998 7.28027C14.8058 7.28027 14.6239 7.37443 14.5119 7.53281C14.4069 7.68111 12.3595 10.619 11.639 14.6555C9.10623 11.7885 6.13857 10.3995 5.99936 10.3354C5.82322 10.2542 5.6185 10.2636 5.45051 10.3605C5.28252 10.4575 5.17201 10.6301 5.1542 10.8232C5.13727 11.0061 4.81875 14.7421 6.36147 18.6564C3.30686 17.7551 0.667911 17.9827 0.54252 17.9942C0.349395 18.012 0.176837 18.1225 0.079864 18.2905C-0.0171087 18.4585 -0.0265423 18.6631 0.0546687 18.8394C0.135762 19.0155 2.08893 23.1806 6.18346 25.5445C9.21158 27.2929 12.507 27.5342 14.0964 27.5342C14.5567 27.5342 14.8738 27.5139 14.9999 27.5042C15.126 27.514 15.4429 27.5342 15.9034 27.5342C17.4929 27.5342 20.7884 27.2927 23.8163 25.5445C27.9108 23.1806 29.8639 19.0155 29.9451 18.8394C30.0264 18.6632 30.0169 18.4585 29.9199 18.2905ZM6.78123 24.5095C4.0684 22.9432 2.34152 20.442 1.58449 19.158C2.75385 19.1673 4.87037 19.3195 7.04256 20.1462C7.13139 20.3154 7.22367 20.4844 7.32076 20.6524C8.86916 23.3343 11.1147 25.1868 12.7325 26.272C11.1173 26.1325 8.85674 25.7078 6.78123 24.5095ZM8.35588 20.0548C6.56432 16.9518 6.31992 13.4794 6.31623 11.859C7.48852 12.5388 9.69703 14.0111 11.4326 16.2857C11.4057 16.6477 11.3909 17.0156 11.3909 17.389C11.3909 20.6155 12.4671 23.4512 13.3565 25.2438C11.8501 24.2242 9.76793 22.5006 8.35588 20.0548ZM15 25.7689C14.1731 24.3346 12.5861 21.0984 12.5861 17.389C12.5861 13.6796 14.1732 10.4434 15 9.00926C15.8269 10.4436 17.4139 13.6797 17.4139 17.3891C17.4139 21.0985 15.8268 24.3347 15 25.7689ZM18.6091 17.389C18.6091 17.0156 18.5942 16.6477 18.5673 16.2857C20.3036 14.0104 22.513 12.5378 23.6849 11.8583C23.6828 13.4763 23.4407 16.9432 21.6442 20.0548C20.2362 22.4936 18.153 24.2184 16.6453 25.2401C17.5343 23.4473 18.6091 20.6134 18.6091 17.389ZM23.2188 24.5095C21.1433 25.7077 18.8827 26.1324 17.2675 26.272C18.8853 25.1868 21.1308 23.3343 22.6792 20.6525C22.7762 20.4844 22.8686 20.3154 22.9575 20.1461C25.1231 19.3221 27.2433 19.1694 28.4148 19.1592C27.6573 20.4437 25.9307 22.9437 23.2188 24.5095Z" fill="#E6E6E6"/>
<path d="M10.1593 7.60535C9.18726 7.60535 8.39636 8.39624 8.39636 9.36832C8.39636 10.3404 9.18726 11.1313 10.1593 11.1313C11.1314 11.1313 11.9223 10.3404 11.9223 9.36832C11.9223 8.39624 11.1314 7.60535 10.1593 7.60535ZM10.1593 9.93603C9.84632 9.93603 9.59162 9.68132 9.59162 9.36832C9.59162 9.05531 9.84632 8.8006 10.1593 8.8006C10.4723 8.8006 10.727 9.05531 10.727 9.36832C10.727 9.68132 10.4724 9.93603 10.1593 9.93603Z" fill="#E6E6E6"/>
<path d="M19.8406 7.60535C18.8685 7.60535 18.0776 8.39624 18.0776 9.36832C18.0776 10.3404 18.8685 11.1313 19.8406 11.1313C20.8127 11.1313 21.6036 10.3404 21.6036 9.36832C21.6036 8.39624 20.8127 7.60535 19.8406 7.60535ZM19.8406 9.93603C19.5276 9.93603 19.2729 9.68132 19.2729 9.36832C19.2729 9.05531 19.5276 8.8006 19.8406 8.8006C20.1536 8.8006 20.4083 9.05531 20.4083 9.36832C20.4083 9.68132 20.1537 9.93603 19.8406 9.93603Z" fill="#E6E6E6"/>
<path d="M15 2.46582C14.028 2.46582 13.2371 3.25672 13.2371 4.22879C13.2371 5.20086 14.028 5.99176 15 5.99176C15.9721 5.99176 16.763 5.20086 16.763 4.22879C16.763 3.25672 15.9721 2.46582 15 2.46582ZM15 4.7965C14.687 4.7965 14.4323 4.5418 14.4323 4.22879C14.4323 3.91578 14.687 3.66107 15 3.66107C15.313 3.66107 15.5677 3.91578 15.5677 4.22879C15.5677 4.5418 15.313 4.7965 15 4.7965Z" fill="#E6E6E6"/>
<path d="M15.598 21.5916C15.2866 21.4826 14.9457 21.6465 14.8364 21.958C14.763 22.1677 14.714 22.2841 14.7137 22.2845C14.5844 22.5882 14.7257 22.9392 15.0293 23.0685C15.1057 23.1011 15.1851 23.1165 15.2633 23.1165C15.4956 23.1165 15.7165 22.9802 15.8134 22.753C15.8197 22.738 15.8781 22.5998 15.9644 22.3532C16.0736 22.0417 15.9095 21.7007 15.598 21.5916Z" fill="#E6E6E6"/>
<path d="M16.7653 17.0721C16.7547 16.7422 16.4779 16.4832 16.1488 16.494C15.8189 16.5046 15.5601 16.7806 15.5707 17.1105C15.6035 18.1307 15.5135 19.1799 15.303 20.2286C15.238 20.5522 15.4477 20.8671 15.7713 20.9321C15.811 20.9401 15.8505 20.9439 15.8895 20.9439C16.1684 20.9439 16.4178 20.7476 16.4748 20.4637C16.7033 19.325 16.801 18.1839 16.7653 17.0721Z" fill="#E6E6E6"/>
</g>
<defs>
<clipPath id="clip0_2_105">
<rect width="30" height="30" fill="white"/>
</clipPath>
</defs>
</svg>
