<svg width="41" height="34" viewBox="0 0 41 34" fill="none" xmlns="http://www.w3.org/2000/svg">
<g clip-path="url(#clip0_2_95)">
<path d="M20.5256 0.904668L20.4626 0.905011C20.2418 0.906238 20.0171 0.91269 19.7876 0.926005C19.5076 0.942246 19.2261 0.91288 18.9384 0.925957C16.507 1.03641 14.2339 1.6234 12.4457 2.45531C11.4505 2.91829 10.5198 3.26525 9.68985 3.80872C8.81689 4.38019 7.99968 5.03966 7.34296 5.77813C5.70779 5.94887 4.82283 7.08132 4.02886 8.09377C3.91612 8.23776 3.76038 8.372 3.65288 8.52025C3.49564 8.73649 3.40464 8.98747 3.2529 9.19496C2.98771 9.5582 2.68645 9.87618 2.40389 10.2439C1.83307 10.9869 1.26015 12.2038 1.17163 13.2985C1.14463 13.3198 1.12343 13.3453 1.11348 13.373C1.10053 13.4095 1.0988 13.4453 1.09733 13.4788C1.09435 13.5458 1.0932 13.5998 1.05671 13.6403L1.04396 13.6543L1.04376 13.6733C1.03816 14.2345 0.844863 14.7775 0.868814 15.4502C0.877284 15.6877 0.937561 15.9236 0.943761 16.1496C0.967935 17.0303 1.02823 17.7363 1.27187 18.3905C1.59431 19.256 1.96749 20.0097 2.40164 20.6749L2.40394 20.6784L2.40682 20.6814C3.13266 21.4671 4.06786 22.2171 5.54367 22.1973C5.74641 22.1946 5.9469 22.1419 6.14164 22.1474C6.78586 22.1654 7.48358 22.5411 8.21729 22.5471C9.05475 22.5541 9.84071 22.1798 10.3039 21.6814C10.3547 21.6269 10.3802 21.5611 10.4104 21.5119C10.4172 21.5009 10.4249 21.4941 10.4317 21.4851C10.2634 22.0316 10.1117 22.6756 10.0717 23.305C10.0287 23.9828 10.113 24.6407 10.4512 25.1255C10.6562 25.4189 10.9234 25.5682 11.2169 25.7387C12.2146 26.3237 13.4545 26.7386 15.07 26.6211C15.4492 26.5936 15.6152 26.4586 15.9022 26.3962C16.1817 26.3337 16.5254 26.3437 16.8521 26.2712C17.4191 26.1437 18.1838 25.8337 18.76 25.5929C18.9973 25.4939 19.352 25.3182 19.6392 25.166C19.8452 25.0567 20.0427 24.9037 20.224 24.82C20.3145 24.778 20.3997 24.7537 20.4782 24.7565C20.5567 24.7592 20.6302 24.787 20.7064 24.8582C20.8999 25.0395 21.1177 25.3647 21.2449 25.6424C21.3617 25.8962 21.4287 26.2112 21.5717 26.4711C21.7089 26.7186 21.9464 26.9386 22.2454 27.0661L22.2429 27.0711L22.2904 27.0886C22.2904 27.0886 22.5649 27.1911 22.7369 27.2111C22.8208 27.2211 22.9586 27.2136 23.0836 27.2086C23.1803 27.2036 23.2383 27.1986 23.2708 27.1961C24.0448 28.8435 25.354 29.956 26.8082 30.9109C27.6281 31.5809 28.3181 32.3909 29.1305 33.0833L29.2205 33.1608L29.213 33.0408C29.208 32.9408 29.1505 32.8608 29.0856 32.7983C29.0206 32.7358 28.9481 32.6834 28.9006 32.6359C28.0481 31.7834 27.2006 30.8834 26.1432 30.256C25.3892 29.6885 24.5648 28.8835 23.981 28.0436C23.7751 27.7461 23.4743 27.4361 23.4138 27.1611C23.3708 26.9661 23.4113 26.8286 23.5033 26.7261C23.5953 26.6261 23.7453 26.5561 23.9248 26.5211C23.9533 26.5136 24.01 26.5311 24.0745 26.5336C24.1068 26.5336 24.143 26.5311 24.1775 26.5136C24.212 26.4936 24.241 26.4611 24.2608 26.4162L24.2898 26.3487L24.2178 26.3462C24.2175 26.3462 24.2158 26.3437 24.2098 26.3412C24.1965 26.3312 24.1638 26.3162 24.1313 26.3212L24.1305 26.3237H24.1298C23.925 26.3662 23.7018 26.3937 23.5253 26.4861C23.3556 26.5736 23.2351 26.7336 23.2403 26.9936C23.2206 27.0061 23.1943 27.0161 23.1583 27.0211C23.1151 27.0261 23.0638 27.0286 23.0131 27.0361C22.9078 27.0411 22.7979 27.0411 22.7571 27.0361C22.6829 27.0286 22.5474 26.9886 22.4534 26.9586C22.1996 26.8511 21.9954 26.6936 21.8066 26.5161C21.5329 25.9512 21.3297 25.2452 20.9009 24.8117C20.8497 24.76 20.7817 24.725 20.7244 24.6885C20.6859 24.664 20.6587 24.6395 20.6382 24.6155C21.5967 24.1493 22.5254 23.5488 23.4148 23.0941C23.3846 23.2463 23.4001 23.373 23.4551 23.4738C23.5231 23.599 23.6428 23.6823 23.7781 23.7465C24.0375 23.8698 24.3618 23.9333 24.559 24.0498C24.4773 24.4552 24.5568 24.7757 24.706 25.0507C24.8603 25.3345 25.0837 25.5729 25.2747 25.8262C25.4005 25.9937 25.5215 26.1687 25.6395 26.3137C25.7582 26.4611 25.8707 26.5811 25.9932 26.6411C26.3332 26.8086 26.7132 26.7036 27.0531 26.6011C26.9332 26.8861 26.7582 27.1611 26.8157 27.5286C26.8507 27.7611 26.9857 27.9211 27.1506 28.0411C27.3081 28.1586 27.4906 28.2411 27.6456 28.3311C27.7881 29.1035 28.4106 29.811 29.2655 29.771C29.588 29.756 29.8555 29.626 30.128 29.4835C30.1605 29.521 30.1805 29.5635 30.193 29.6185C30.208 29.6835 30.213 29.761 30.243 29.8385C30.333 30.086 30.5055 30.2935 30.648 30.4985C30.713 30.5959 30.773 30.7234 30.853 30.8334C30.9305 30.9434 31.033 31.0434 31.1805 31.0709L31.2954 31.0909L31.2304 30.9934C30.9905 30.6259 30.543 30.196 30.418 29.7085C30.6805 29.8885 31.0455 30.0235 31.4579 30.0935C31.9279 30.1735 32.4504 30.176 32.9254 30.071C33.3703 29.971 33.8603 29.7435 34.3353 29.516C34.8428 29.2735 35.3403 29.0685 35.6027 28.726C35.8377 28.4211 35.9602 27.9636 36.1252 27.7086C36.3627 27.5711 36.6827 27.4511 36.9302 27.2611C37.1727 27.0786 37.3402 26.8136 37.2677 26.4261C37.4977 26.3187 37.5951 26.1212 37.6526 25.9037C37.7151 25.6727 37.7426 25.4127 37.8576 25.1682C37.9226 25.033 38.0251 24.926 38.0826 24.7915C38.4101 24.0233 38.0826 23.2398 37.6501 22.7216C37.7401 22.6106 37.7651 22.4623 37.7476 22.3206C37.7301 22.1824 37.6776 22.0514 37.6051 21.9544C37.7301 21.8449 37.8251 21.7324 37.8626 21.5576C37.9051 21.3414 37.8751 21.1569 37.7901 21.0047C37.7051 20.8524 37.5701 20.7332 37.4127 20.6364C37.1702 20.4864 36.8777 20.3954 36.6077 20.3182C37.1652 20.2502 37.6751 20.1524 38.2251 20.0215C38.7751 19.89 39.4701 19.762 39.8225 19.4082C40.2075 19.0227 40.44 18.1893 40.4625 17.5251C40.5025 16.3459 40.2775 15.2334 39.96 14.3812C39.6576 13.577 39.3701 12.8038 39.0576 12.0796C38.8926 11.6938 38.7801 11.2726 38.4951 11.0126L38.4851 11.0019L38.4701 10.9999C38.3651 10.9859 38.2676 10.9634 38.1726 10.9384C38.2701 10.5886 38.2001 10.2877 38.0576 10.0179C37.9101 9.73519 37.6876 9.4822 37.5027 9.22096C37.2052 8.79873 36.9577 8.47625 36.6777 8.07152C36.3977 7.66379 36.1727 7.26206 35.8777 6.89382C35.6552 6.61684 35.4678 6.31135 35.2278 6.06436C35.0078 5.83662 34.7378 5.66138 34.3628 5.61189C34.4528 5.49464 34.4803 5.35365 34.4603 5.21765C34.4353 5.05141 34.3503 4.89092 34.2528 4.76893C33.9278 4.37119 33.3878 4.04896 32.9154 3.73397C32.4304 3.40974 31.9579 3.1251 31.3554 2.90384C30.793 2.69737 30.183 2.53381 29.5805 2.32852C29.2505 2.21637 28.8431 2.05473 28.4381 1.95446C28.0631 1.86186 27.6906 1.82186 27.3731 1.92756C27.3881 1.82234 27.3956 1.71297 27.3306 1.62167L27.3256 1.61687L27.3206 1.61297C27.0456 1.37774 26.6457 1.27712 26.2157 1.21979C25.7832 1.16247 25.3212 1.14957 24.9208 1.10147L24.917 1.10105L24.9133 1.10115C23.3848 1.14302 22.0444 0.904218 20.5255 0.905883L20.5257 0.904663L20.5256 0.904668ZM20.4903 1.05091C21.434 1.04886 22.4452 1.17973 23.2857 1.2507C24.6304 1.36424 26.1731 1.21312 27.198 1.71267C27.253 1.84322 27.2355 1.92976 27.183 2.01619C27.1305 2.10641 27.0355 2.19195 26.9505 2.2939L27.013 2.36989C27.2805 2.22825 27.448 2.02771 27.7905 2.02571C27.9255 2.02491 28.043 2.09308 28.2055 2.12478C28.478 2.17888 28.7304 2.19188 28.9729 2.2731C29.1729 2.34002 29.3504 2.48961 29.5704 2.57246C30.0479 2.75125 30.5504 2.83042 31.0753 2.97382C31.5753 3.10988 32.1303 3.48424 32.6128 3.76848C33.1052 4.05896 33.6052 4.3887 33.9527 4.73568C34.1102 4.89217 34.3127 5.10916 34.2877 5.4329C34.1502 5.63614 33.8527 5.70514 33.6102 5.85763L33.5377 5.90388L33.6152 5.94437C33.6802 5.97837 33.7477 5.97937 33.8127 5.96412C33.8777 5.94887 33.9402 5.91913 34.0027 5.88863C34.1327 5.82713 34.2702 5.76163 34.4327 5.77488C34.7102 5.79713 34.9402 5.99437 35.1501 6.24811C35.3601 6.5021 35.5426 6.80808 35.7251 7.03157C36.1301 7.53055 36.5326 8.17277 36.9201 8.75249C37.0475 8.94223 37.21 9.11097 37.3475 9.30346C37.4675 9.47346 37.6325 9.6832 37.775 9.89419C37.915 10.1049 38.035 10.3184 38.0625 10.4829C38.1025 10.7094 38.0675 10.8301 37.9925 10.9171C37.92 11.0044 37.8 11.0609 37.665 11.1296L37.5275 11.1994L37.68 11.2236C37.8475 11.2501 37.98 11.1889 38.095 11.1564C38.21 11.1239 38.3 11.1109 38.4325 11.2136C38.5325 11.2931 38.65 11.5269 38.75 11.7788C38.8525 12.0311 38.94 12.3011 39.0175 12.4698C39.2174 12.909 39.4099 13.44 39.5399 13.7913C39.7899 14.4645 40.0149 15.0567 40.1399 15.8044L40.0824 15.7782C39.7149 15.6059 39.3874 15.3984 39.1525 15.1044C38.915 14.8105 38.7675 14.4292 38.7625 13.8982V13.8772L38.7475 13.8628C38.625 13.7448 38.51 13.6118 38.3775 13.4928C38.2375 13.2635 38.105 13.026 37.9575 12.8015C37.9 12.6753 37.8675 12.5151 37.8325 12.3543C37.8 12.2083 37.765 12.0626 37.7 11.9383C37.745 11.8973 37.77 11.8403 37.7825 11.7818C37.8 11.7081 37.805 11.6276 37.8125 11.5546L37.815 11.5219L37.7875 11.5056C37.2075 11.1779 36.7526 10.7521 36.6626 9.94393L36.6576 9.90694L36.6226 9.90019C36.3976 9.85819 36.1951 9.77069 36.0601 9.63395C35.9251 9.49721 35.8551 9.31296 35.8876 9.05598L35.8926 9.01898L35.8576 9.00373C35.3176 8.76274 34.9976 8.29151 34.6077 7.86928C34.2252 7.45405 33.7677 7.09157 32.9777 7.07707C32.9077 6.80708 32.7203 6.65334 32.5478 6.5086C32.3703 6.35935 32.2078 6.21886 32.1653 5.95312C32.1678 5.94137 32.1703 5.93563 32.1803 5.92838C32.1928 5.91988 32.2128 5.91163 32.2378 5.90188C32.2628 5.89213 32.2903 5.88113 32.3178 5.85763C32.3428 5.83413 32.3628 5.79513 32.3628 5.75088V5.72139L32.3378 5.70664C32.1928 5.62364 32.0453 5.61314 31.9003 5.62439C31.7578 5.63589 31.6178 5.66789 31.4853 5.67514C30.0929 5.75138 28.5405 5.42665 27.2555 5.62564C26.678 5.71514 26.1431 5.88788 25.6566 6.06937C25.9831 5.64014 26.2956 5.18466 26.4381 4.56144L26.4506 4.50294L26.3931 4.50044C26.3931 4.50094 26.3906 4.50044 26.3906 4.50044H26.3931C26.3931 4.49994 26.3906 4.49844 26.3831 4.49394C26.3706 4.48469 26.3381 4.47044 26.3056 4.47594L26.2656 4.48319V4.51019C26.2606 4.51219 26.2556 4.51369 26.2456 4.51919C26.2356 4.52744 26.2206 4.54419 26.2156 4.56419L26.2181 4.55719C25.9531 5.23741 25.4236 5.88488 24.8071 6.41185C23.9429 7.15057 22.8067 7.97303 21.3928 7.89978L21.3428 7.89703L21.3403 7.94728C21.301 8.74649 21.0156 9.29047 20.6138 9.7257C20.2121 10.1609 19.6919 10.4857 19.1871 10.8329L19.1634 10.8494L19.1656 10.8781C19.1686 10.9136 19.1641 10.9636 19.1641 11.0131C19.1639 11.0624 19.1644 11.1159 19.2041 11.1584L19.2264 11.1821L19.2571 11.1714C19.8871 10.9514 20.3783 10.5569 20.8006 10.1347C21.2368 9.6987 21.5168 9.16247 21.8255 8.6135C21.9853 8.54775 22.1908 8.44076 22.3937 8.37851C22.5915 8.31751 22.7745 8.30551 22.9087 8.39951C22.831 8.83299 22.5645 9.20572 22.5155 9.61845L22.5097 9.66545L22.5562 9.6737C22.6205 9.68495 22.6775 9.6742 22.7207 9.6467C22.764 9.61945 22.7922 9.5787 22.8125 9.5372C22.853 9.45421 22.8685 9.35871 22.8857 9.31971C23.0767 8.88598 23.3505 8.58475 23.6054 8.22877C24.1607 7.45405 24.8894 6.94383 25.8331 6.54585C26.5056 6.26336 27.3755 6.05387 28.243 5.99987C28.7604 5.96762 29.2954 6.03487 29.8604 6.07487C30.1079 6.09237 30.3979 6.05387 30.6554 6.09937C31.0828 6.17511 31.8053 6.4786 32.1603 6.71634C32.4178 6.88783 32.6003 7.22506 32.5628 7.62004C32.5228 8.05402 32.2278 8.70024 32.0428 9.07748C31.8128 9.5487 31.4528 9.93693 31.2928 10.3042L31.2228 10.4614L31.3653 10.3659C31.8703 10.0272 32.2553 9.19172 32.5578 8.54575C32.6228 8.40826 32.6653 8.21827 32.7178 8.04577C32.7703 7.87303 32.8377 7.72154 32.9177 7.66579C33.0527 7.57105 33.2127 7.5843 33.3952 7.63654C33.5702 7.68729 33.7577 7.77404 33.9377 7.81878C34.2877 8.09852 34.4652 8.40101 34.8277 8.75999C34.9202 8.85274 35.0576 8.95398 35.1776 9.05373C35.3001 9.15322 35.4076 9.25472 35.4426 9.32221C35.4601 9.35371 35.4651 9.39546 35.4676 9.44246C35.4726 9.48921 35.4726 9.5407 35.4901 9.5912C35.6201 9.94993 35.9501 10.1704 36.2676 10.3074C36.3051 10.6919 36.4626 10.9626 36.6676 11.1791C36.8726 11.3959 37.1175 11.5619 37.3375 11.7481C37.315 12.859 37.82 13.4588 38.3125 14.041C38.315 14.133 38.305 14.2392 38.3125 14.3387C38.005 14.142 37.625 14.0337 37.265 14.0362C36.8626 14.0387 36.4776 14.1792 36.2476 14.494C36.1976 14.5627 36.1201 14.6712 36.0776 14.7912C36.0351 14.911 36.0276 15.0527 36.1251 15.1577L36.1626 15.1954L36.1976 15.1584C36.2776 15.0787 36.3351 14.9644 36.3976 14.856C36.4601 14.7475 36.5301 14.6462 36.6151 14.5905C36.8251 14.453 37.215 14.4062 37.3825 14.4235C37.895 14.4757 38.27 14.8482 38.665 15.2089C39.0575 15.5697 39.4749 15.9184 40.0649 15.8732L40.1524 15.8667C40.1924 16.1299 40.2224 16.4126 40.2374 16.7256C40.2699 17.4508 40.2324 18.048 40.0649 18.557C39.8949 19.0663 39.5999 19.3432 39.1924 19.5325C38.7875 19.7217 38.27 19.818 37.6775 19.9487C36.5251 20.2029 35.5151 20.2197 34.3102 20.2727C33.2227 20.3204 32.2528 20.6679 31.2053 20.8232C30.2454 20.9654 29.2629 21.0214 28.3105 21.0977C26.843 21.2154 25.5691 21.5406 24.5391 22.1544C24.2057 22.3528 23.9137 22.5881 23.5894 22.7791C23.013 23.1186 22.4182 23.4358 21.8395 23.779C21.2613 24.122 20.6398 24.4083 20.0419 24.7277C18.9054 25.335 17.7157 25.9262 16.3538 26.1487C17.2065 25.6519 17.75 24.8525 18.3542 24.129L18.2954 24.0513C18.0005 24.182 17.8465 24.489 17.653 24.7142C17.161 25.2865 16.6485 25.8462 15.8948 26.2012C15.1021 26.5761 13.6167 26.5112 12.708 26.1987C12.094 25.9887 11.5573 25.7287 11.0445 25.4547C10.2741 24.878 10.0793 23.7198 10.3411 22.4573C10.4768 21.8031 10.773 21.1134 10.9895 20.4379C11.2188 19.723 11.5098 19.1085 11.9227 18.7375C12.3447 18.512 12.6022 18.1268 13.0622 17.9186C13.2992 17.8113 13.5712 17.8028 13.8354 17.6943C14.1691 17.5573 14.5201 17.3861 14.7569 17.1288C14.9951 17.2078 15.2053 17.1918 15.4013 17.1308C15.6066 17.0671 15.7991 16.9596 16.0108 16.8691C16.5223 16.6509 16.9705 16.4546 17.4402 16.1919C17.852 15.9616 18.2107 15.7794 18.4437 15.3967C18.5742 15.3932 18.6889 15.3799 18.7884 15.3417C18.8952 15.3007 18.9852 15.2312 19.0569 15.1267C19.1209 15.0334 19.1366 14.9182 19.1651 14.8675C19.1796 14.842 19.1861 14.836 19.2056 14.835C19.2254 14.8337 19.2694 14.8455 19.3381 14.8905L19.3521 14.8995L19.3686 14.8985C20.8208 14.8077 21.882 14.3052 22.392 13.2553C22.6532 13.4018 23.0102 13.467 23.3752 13.4623C23.7614 13.4575 24.1527 13.372 24.4479 13.2118C24.5081 13.2913 24.5626 13.3838 24.6284 13.4728C24.5204 13.6163 24.4026 13.7798 24.4401 14.0797L24.4449 14.1187L24.4839 14.1232C24.6631 14.144 24.7936 14.1042 24.8874 14.029C24.9719 13.961 25.0236 13.8682 25.0689 13.7745C25.2314 13.7853 25.3564 13.754 25.4403 13.6943C25.5306 13.6303 25.5726 13.5328 25.5576 13.4408C25.5426 13.349 25.4721 13.2675 25.3626 13.2283C25.2631 13.1928 25.1304 13.1925 24.9701 13.2388C24.9359 13.147 24.8881 13.0638 24.8179 12.9995C25.6316 12.3896 26.3131 11.3506 26.0906 9.95243C26.1681 9.7057 26.1906 9.38921 26.1906 9.12422L26.1881 9.06548L26.1306 9.07523C26.0781 9.08372 26.0381 9.11022 26.0081 9.14272C25.9806 9.17547 25.9631 9.21272 25.9481 9.24847C25.9256 9.30421 25.9056 9.34921 25.8806 9.38096C25.8656 9.36596 25.8531 9.34671 25.8356 9.31971C25.8106 9.27672 25.7731 9.21972 25.7031 9.20097L25.6956 9.19947H25.6906C25.6233 9.19922 25.5776 9.22372 25.5428 9.23847C25.5078 9.25297 25.4826 9.26222 25.4244 9.25047L25.2889 9.22322L25.3756 9.33071C25.7806 9.83194 25.8006 10.7796 25.5183 11.4549C25.5246 11.4401 25.5156 11.4539 25.4936 11.4649C25.4718 11.4759 25.4384 11.4869 25.4191 11.5281C25.4011 11.5669 25.4099 11.6041 25.4149 11.6259C25.4199 11.6479 25.4191 11.6534 25.4199 11.6516C25.2104 12.0706 24.8629 12.4931 24.4099 12.7578C23.9594 13.0208 23.4059 13.1295 22.767 12.9293C22.705 12.868 22.6507 12.791 22.5792 12.7213C22.5047 12.6488 22.4077 12.5866 22.2695 12.5741L22.2283 12.5703L22.217 12.6103C21.848 13.9045 20.4823 14.6367 18.8507 14.2997L18.7707 14.2832L18.7924 14.362C18.8559 14.592 18.7977 14.7185 18.6772 14.8067C18.5567 14.895 18.3624 14.9364 18.1627 14.9487L18.1237 14.9509L18.1167 14.9894C18.066 15.2637 17.8682 15.4852 17.5952 15.6769C17.3222 15.8687 16.9768 16.0279 16.6455 16.1776C16.3993 16.2891 16.1738 16.3936 15.9213 16.5024C15.6928 16.6009 15.4633 16.6996 15.2623 16.7244C15.0613 16.7489 14.8946 16.7076 14.7566 16.5189L14.7006 16.4421L14.6691 16.5316C14.5441 16.8869 14.1504 17.1273 13.6897 17.2041C13.2289 17.2806 12.7087 17.1918 12.3477 16.9089C12.1152 16.7266 11.891 16.4016 11.7285 16.0424C11.566 15.6834 11.4645 15.2897 11.467 14.9739C11.4678 14.8712 11.517 14.753 11.5685 14.6402C11.6198 14.5275 11.676 14.4225 11.6668 14.3192C11.6578 14.2205 11.5905 14.1675 11.546 14.1352C11.5238 14.119 11.507 14.1057 11.4993 14.095C11.4913 14.0845 11.488 14.078 11.4913 14.056L11.5065 13.954L11.417 14.0052C11.2528 14.0992 11.173 14.2697 11.118 14.4542C11.0725 14.41 11.0218 14.3655 10.9585 14.3315C10.866 14.282 10.7505 14.258 10.6258 14.3015L10.5926 14.313L10.5921 14.348C10.5903 14.5042 10.6538 14.6092 10.7308 14.6852C10.8053 14.7592 10.8888 14.8117 10.9485 14.8762C11.1138 15.2959 11.1373 15.7699 11.3463 16.2434C11.5375 16.6774 11.8285 17.0716 11.8925 17.4318C11.9115 17.5376 11.8912 17.6278 11.8542 17.7231C11.8195 17.8121 11.77 17.9061 11.7285 18.0108C11.1035 18.3308 10.1676 18.5455 9.6586 19.011C9.6051 19.0598 9.53185 19.135 9.48361 19.2277C9.43511 19.3205 9.41236 19.4375 9.47361 19.547L9.49861 19.592L9.5426 19.5657C9.6416 19.5072 9.70735 19.4217 9.76934 19.3385C9.83159 19.2555 9.89059 19.1742 9.97208 19.1128C10.0761 19.0348 10.2973 18.9185 10.4853 18.8445C10.836 18.7065 11.2915 18.4915 11.6923 18.5435C11.6895 18.5588 11.684 18.575 11.6738 18.5935C11.6555 18.627 11.6248 18.6643 11.588 18.7028C11.5143 18.7793 11.4183 18.858 11.3525 18.942C10.8818 19.543 10.8153 20.4539 10.4726 21.1247C10.0888 21.8756 9.16187 22.4256 7.99593 22.3473C7.4322 22.3096 6.93223 22.0231 6.32176 21.9724C5.95652 21.9421 5.60054 22.0236 5.27181 21.9974C4.64934 21.9479 4.17286 21.7301 3.71738 21.5284C2.92482 21.0317 2.36557 20.2994 1.91451 19.4525C1.67905 18.679 1.2251 17.9286 1.16865 17.0201C1.13305 16.4471 1.11785 15.8702 1.10175 15.2784C1.11208 15.3232 1.1243 15.3697 1.14868 15.4202C1.222 15.5719 1.34089 15.6857 1.45629 15.7904C1.57168 15.8952 1.68373 15.9914 1.75115 16.0996C1.86572 16.2841 1.93434 16.5381 2.05251 16.7474C2.11158 16.8519 2.18435 16.9459 2.285 17.0111C2.38567 17.0761 2.51319 17.1098 2.67215 17.0981L2.68055 16.9996C2.43524 16.9386 2.30842 16.8054 2.2064 16.6296C2.10436 16.4539 2.03321 16.2356 1.91202 16.0236C1.83229 15.8839 1.70765 15.7802 1.59148 15.6807C1.47531 15.5814 1.36814 15.4864 1.31352 15.3762C1.11923 14.9839 1.20145 14.4677 1.31742 13.9597C1.50431 13.141 2.09343 12.3001 2.82552 11.6874C3.54339 11.0866 4.24685 10.4184 5.15356 10.2232C5.21306 10.2104 5.3038 10.2002 5.36855 10.1994C5.46805 10.1982 5.60654 10.2414 5.73928 10.2837C5.87203 10.3259 5.99677 10.3704 6.10302 10.3482C6.16126 10.3362 6.20876 10.2974 6.25551 10.2492C6.30201 10.2012 6.3475 10.1419 6.3925 10.0802C6.48275 9.95668 6.57499 9.82269 6.64899 9.76344C6.79623 9.6457 6.99922 9.53095 7.20296 9.47696C7.40645 9.42296 7.6067 9.42896 7.76369 9.5402L7.81069 9.5737L7.83694 9.5222C8.10717 8.99648 8.38666 8.45326 8.78639 8.04952C9.18612 7.64579 9.7026 7.37881 10.4658 7.39981L10.4868 7.4003L10.5021 7.38556C10.685 7.20731 10.787 6.96258 10.9103 6.75009L10.9108 6.74909L10.9113 6.74809C11.3943 5.82963 12.6237 4.93092 13.8794 4.59869C14.1339 4.53119 14.4824 4.47869 14.8091 4.48469C15.1358 4.49069 15.4393 4.55794 15.6073 4.71218C15.6478 4.74918 15.6756 4.80668 15.7096 4.87218C15.7408 4.93217 15.7816 4.99742 15.8466 5.05042C16.1128 5.80238 15.7191 6.69484 15.5431 7.31106L15.5096 7.42855L15.6158 7.36831C15.8001 7.26406 15.8236 7.04082 15.8638 6.91508C16.0128 6.4496 16.1373 6.05312 16.166 5.52789C16.1748 5.36815 16.11 5.19241 16.1403 5.03467C16.1938 4.75368 16.4095 4.49294 16.676 4.2527C16.9425 4.01272 17.257 3.79423 17.4982 3.58849C17.6572 3.45324 17.8147 3.2245 17.9732 3.08856C18.4072 2.71653 18.9914 2.46976 19.5154 2.16905L19.5391 2.15543L19.5404 2.12816C19.5419 2.09913 19.5514 2.08056 19.5651 2.05008C19.5786 2.01961 19.5944 1.97719 19.5904 1.92204L19.5821 1.8116L19.5169 1.87849C19.5131 1.87547 19.5139 1.87624 19.5084 1.87064C19.4839 1.84547 19.4451 1.8001 19.3816 1.77845L19.3669 1.77347L19.3521 1.77762C18.4434 2.03121 17.683 2.44107 17.1815 3.11393C16.7075 3.46524 16.3555 3.79823 15.6376 3.85047C15.4688 3.86297 15.2866 3.84097 15.1136 3.85047C13.8634 3.91972 12.9544 4.38795 12.14 4.90817C11.7362 5.16591 11.3298 5.45815 11.0285 5.81813C10.7188 6.18836 10.5278 6.61084 10.2158 6.97733C9.48411 7.02307 8.96288 7.28806 8.56165 7.66704C8.16292 8.04402 7.88118 8.531 7.61245 9.02573C6.86073 9.01523 6.30901 9.40771 5.95027 9.86744C5.11456 9.6047 4.2896 10.0409 3.69088 10.4324C2.73288 11.0589 1.96104 11.9723 1.40731 12.9798C1.43909 12.6643 1.54053 12.3626 1.66468 12.0686V12.0683C1.80922 11.7259 1.94551 11.3609 2.11266 11.0476C2.44017 10.4339 2.94117 9.92719 3.35865 9.35396C4.18411 8.22102 4.92107 6.97958 6.16626 6.31911C6.524 6.12937 6.89673 5.99112 7.39421 5.97512L7.41545 5.97437L7.42945 5.95887C8.05017 5.27941 8.75889 4.65694 9.59435 4.11746C10.4063 3.59324 11.2855 3.16951 12.237 2.74633C14.2851 1.83549 16.5068 1.19445 19.1179 1.07585C19.5596 1.05578 20.0489 1.05188 20.4903 1.05091ZM18.2697 1.62005C17.1725 1.62413 16.2698 2.10948 15.6248 2.6745C15.3903 2.66171 15.1103 2.63386 14.8631 2.65073C12.9517 2.78105 11.6543 3.60174 10.5121 4.46044C10.3388 4.59044 10.1911 4.76518 10.0188 4.85593C9.91184 4.91242 9.78284 4.92792 9.6521 4.95142C9.52135 4.97492 9.38586 5.00842 9.28162 5.11516L9.19937 5.19941L9.31711 5.20016C9.6126 5.20191 9.86259 5.08142 10.0651 5.04217C10.0073 5.13166 9.94183 5.23141 9.88734 5.34315C9.81359 5.49365 9.76434 5.65989 9.82009 5.81688L9.88159 5.98987L9.91634 5.80963C10.0818 4.95067 10.7228 4.54969 11.394 4.11746C12.534 3.38325 14.1334 2.60071 15.8583 2.87499L15.9161 2.88417L15.9163 2.82572C15.9163 2.77475 15.8983 2.7435 15.8871 2.72655C15.8898 2.72315 15.8893 2.7228 15.9011 2.71153L15.9013 2.71123L15.9016 2.71088C16.4913 2.11821 17.4117 1.84344 18.4962 1.72547L18.4934 1.62588C18.4179 1.62168 18.3434 1.61978 18.2697 1.62005ZM25.3316 1.7168C25.3146 1.71722 25.2986 1.72 25.2839 1.72397C25.2246 1.73987 25.1759 1.77642 25.1656 1.78192C24.6404 2.06728 23.8592 2.39969 23.2942 2.65513L23.2855 2.65918L23.2787 2.66625C22.7435 3.22925 22.2018 3.76123 21.2343 3.87597L21.1966 3.88022L21.1908 3.91797C20.9841 5.27791 20.2698 6.10912 19.0997 6.5026L19.0672 6.5136L19.0657 6.54785C19.0309 7.33081 18.7354 7.89653 18.2857 8.32426C17.8357 8.75174 17.2292 9.03948 16.5755 9.25197L16.5298 9.26697L16.543 9.31322C16.6758 9.78069 16.5523 10.1724 16.3133 10.4982C16.0743 10.8241 15.7176 11.0796 15.3926 11.2551L15.3483 11.2791L15.3723 11.3231C15.7451 12.0063 15.8991 13.116 15.6431 14.01C15.6048 14.1437 15.5261 14.2747 15.4661 14.413C15.4061 14.5512 15.3653 14.7017 15.4188 14.8642L15.4328 14.907L15.4768 14.8975C15.6856 14.8522 15.8111 14.6892 15.8896 14.5032C15.9678 14.3175 16.0048 14.1037 16.04 13.934C16.2083 13.1273 16.206 12.2718 15.8513 11.4891C16.4418 11.0041 17.0042 10.5169 17.0392 9.50771C18.2307 9.01923 19.1766 8.26251 19.4596 6.85608C20.1206 6.45435 20.7171 6.01862 21.0846 5.32365C21.2968 4.92242 21.4093 4.56044 21.6005 4.14446C22.0358 4.08896 22.2845 3.93797 22.6155 3.74348C23.051 3.48774 23.2805 3.09933 23.6397 2.89402C23.9514 2.71595 24.2814 2.61563 24.5991 2.49404C24.9166 2.37247 25.2224 2.22868 25.4758 1.96009L25.5128 1.92084L25.4708 1.88689C25.4669 1.88349 25.4676 1.88407 25.4641 1.88104C25.4733 1.87024 25.4816 1.85724 25.4868 1.84179L25.4951 1.81757L25.4803 1.79677C25.4536 1.75912 25.4194 1.73432 25.3839 1.72362C25.3661 1.71827 25.3484 1.71635 25.3316 1.7168ZM25.4266 1.84897C25.4274 1.84954 25.4281 1.85004 25.4289 1.85139C25.4286 1.85117 25.4274 1.85019 25.4264 1.84924C25.4264 1.84914 25.4264 1.84907 25.4266 1.84897ZM30.9128 3.45049C30.5254 3.46374 30.1929 3.61423 29.8829 3.78198C29.5729 3.94997 29.2804 4.13496 28.9754 4.22746C28.7954 4.28145 28.5655 4.2602 28.3605 4.40995L28.2205 4.51094L28.393 4.50019C29.0779 4.45694 29.4854 4.19946 29.9354 3.96997C30.2604 3.80498 30.5654 3.67998 30.9303 3.54749L30.9128 3.45049ZM14.1201 5.84963C14.1161 5.84963 14.1119 5.85013 14.1079 5.85088L14.0814 5.85538L14.0706 5.88013C13.8616 6.36235 13.6324 6.89958 13.4199 7.45705C13.1834 8.07677 12.8654 8.75199 12.8417 9.44771C12.8162 10.1929 12.9787 11.0031 12.9439 11.8201C12.7235 11.7081 12.424 11.6216 12.106 11.5871C11.7685 11.5506 11.4175 11.5739 11.1348 11.6904C10.5538 10.8896 9.72484 10.1922 8.39141 10.2244L8.38091 10.3229C9.47086 10.5807 10.3453 11.0369 10.7783 11.9338C10.1746 12.3566 9.73259 12.9013 9.5436 13.687C9.42711 14.1717 9.31112 14.6757 9.07763 15.1154C8.75614 15.3687 8.41666 15.5379 8.01943 15.5234C7.30271 15.4974 6.60874 14.8785 6.12177 14.5327L5.99752 14.4447L6.04527 14.5892C6.15826 14.9312 6.38775 15.2537 6.71149 15.5124C6.99422 15.7384 7.4287 15.8957 7.71869 16.1104C7.86368 16.2176 7.97018 16.3364 8.01068 16.4794C8.05117 16.6214 8.02943 16.7936 7.90068 17.0198C7.73094 17.2326 7.4557 17.3408 7.16197 17.4538C6.86698 17.5671 6.55424 17.6858 6.33026 17.9398C5.83628 18.5003 5.67179 19.3617 6.10002 20.0735C6.29501 20.3974 6.74874 20.6872 7.22696 20.5967L7.38946 20.5659L7.23721 20.5014C6.86373 20.3434 6.60674 20.2242 6.43625 19.923C6.12177 19.3667 6.23101 18.8573 6.53175 18.4535C6.82723 18.0561 7.31346 17.7698 7.75544 17.6776C7.99718 17.8936 8.44441 18.0041 8.85214 17.9798C9.06188 17.9673 9.26137 17.9183 9.41561 17.8213C9.56985 17.7243 9.6781 17.5746 9.6921 17.3766L9.69835 17.2881L9.61935 17.3286C9.44786 17.4168 9.34636 17.5661 9.13487 17.5986C8.81839 17.6471 8.4799 17.5171 8.27941 17.3713C8.4819 17.2121 8.5734 16.9489 8.6784 16.7239C8.73589 16.6004 8.79739 16.4884 8.87714 16.4086C8.95688 16.3286 9.05263 16.2781 9.19412 16.2731C9.38986 16.2664 9.5336 16.3389 9.68535 16.4289C9.83709 16.5191 9.99458 16.6276 10.2068 16.6721L10.2588 16.6831L10.2666 16.6306C10.2836 16.5181 10.2423 16.4349 10.1926 16.3756C10.1428 16.3161 10.0886 16.2734 10.0608 16.2239C9.84284 15.8357 9.76534 15.2409 9.80184 14.6627C9.83859 14.0847 9.99008 13.5225 10.2086 13.202C10.4348 12.87 10.882 12.5446 11.368 12.3851C11.854 12.2256 12.3735 12.2306 12.7607 12.5381C13.0567 12.7731 13.1312 13.189 13.1332 13.6828C13.1352 14.1765 13.0649 14.7395 13.0917 15.2512L13.0929 15.2752L13.1129 15.2892C13.1892 15.3432 13.2824 15.3942 13.4152 15.3984L13.4609 15.3999L13.4664 15.3542C13.4784 15.2492 13.5337 15.1067 13.5869 14.9669C13.6404 14.827 13.6934 14.6905 13.6917 14.5727C13.6814 13.9015 13.5572 12.94 13.4664 12.0936C13.4219 11.6801 13.4802 11.3166 13.4667 10.9224C13.4589 10.7004 13.4019 10.3794 13.3632 10.0394C13.3244 9.69945 13.3044 9.34196 13.3654 9.05998C13.5862 8.04103 13.9646 6.89033 14.2396 5.93887L14.2571 5.87788L14.1944 5.87513C14.1949 5.87563 14.1936 5.87513 14.1936 5.87513H14.1944C14.1941 5.87463 14.1926 5.87313 14.1864 5.86863C14.1749 5.86063 14.1484 5.84863 14.1201 5.84963ZM7.10997 6.34836L7.01772 6.3781C7.04072 6.75759 6.95898 7.12232 6.69399 7.30506C5.90903 7.5133 5.3768 7.98228 5.01057 8.6075C4.55009 8.72224 4.19136 8.93523 3.90662 9.24047C3.64988 9.51595 3.54664 9.91244 3.35215 10.1959C3.2159 10.3947 3.06394 10.4759 2.95162 10.6469L2.88034 10.7554L3.00596 10.7226C3.27915 10.6517 3.43839 10.4617 3.55714 10.2477C3.67563 10.0337 3.75938 9.79344 3.88512 9.60195C4.15111 9.19622 4.60059 8.87449 5.09806 8.82424L5.12356 8.82174L5.13631 8.79974C5.34255 8.44476 5.61229 8.08552 5.97302 7.82678C6.33401 7.5678 6.78498 7.40755 7.36396 7.44955C7.4582 7.45655 7.5652 7.4918 7.66719 7.5123C7.71819 7.52255 7.76844 7.52905 7.81769 7.5238C7.86693 7.5183 7.91643 7.4988 7.95393 7.4593L8.00043 7.41005L7.93968 7.38006C7.80244 7.31206 7.60795 7.28906 7.40945 7.27956C7.24946 7.27181 7.10347 7.27506 6.97248 7.27581C7.04322 7.17857 7.11022 7.04982 7.15172 6.90958C7.20646 6.72434 7.21621 6.51685 7.10997 6.34836ZM27.543 7.5993C27.538 7.5993 27.5355 7.5998 27.5305 7.60055L27.5205 7.6023L27.5105 7.6083C27.4805 7.62879 27.4655 7.65904 27.4555 7.68529C27.448 7.71154 27.443 7.73654 27.4355 7.75604C27.4305 7.77579 27.4255 7.78854 27.4205 7.79329C27.4155 7.79629 27.408 7.79654 27.403 7.79754C27.378 7.78254 27.358 7.75554 27.3305 7.71879C27.298 7.67754 27.2455 7.62904 27.168 7.62479L27.113 7.62179L27.1155 7.67654C27.118 7.80229 27.178 7.90878 27.238 8.01278C27.3005 8.11677 27.363 8.21952 27.3905 8.33626C27.493 8.76099 27.648 9.28847 27.733 9.80844C27.813 10.3119 27.823 10.8059 27.658 11.1896C27.6455 11.1856 27.638 11.1826 27.6205 11.1789C27.588 11.1719 27.538 11.1794 27.503 11.2146L27.4755 11.2429L27.498 11.2761C27.5755 11.3981 27.7055 11.4601 27.8505 11.4976L27.9055 11.5111L27.913 11.4574C27.9205 11.4226 27.9155 11.3911 27.9055 11.3654C27.893 11.3396 27.8755 11.3219 27.8605 11.3091C27.8355 11.2884 27.828 11.2806 27.8205 11.2696C28.113 10.6991 27.988 10.0657 27.8355 9.44946C27.678 8.82299 27.498 8.21077 27.663 7.68979L27.6805 7.62754L27.618 7.62479C27.618 7.62529 27.6155 7.62479 27.6155 7.62479H27.618C27.618 7.62429 27.6155 7.62304 27.608 7.61855C27.598 7.6103 27.5705 7.5983 27.543 7.5993ZM29.3129 8.22477L29.2654 8.22602L29.2629 8.27351C29.2629 8.33576 29.2854 8.38726 29.3204 8.42001C29.3554 8.45276 29.3979 8.46875 29.4379 8.482C29.4779 8.495 29.5154 8.50575 29.5429 8.519C29.5679 8.53225 29.5829 8.54525 29.5904 8.56625C30.2904 11.1599 28.8104 13.1478 26.8255 13.7258L26.7605 13.7445L26.798 13.8008C26.8505 13.884 26.8355 13.9635 26.813 14.0475C26.8005 14.0895 26.7855 14.1307 26.778 14.1727C26.7705 14.2147 26.7705 14.263 26.798 14.3032L26.823 14.3372L26.8605 14.3182C26.9555 14.2717 27.0005 14.1795 27.0155 14.0852C27.0255 14.0077 27.0155 13.9282 26.998 13.8553C27.5105 13.6755 27.9855 13.4358 28.4705 13.0635C28.6804 12.9005 28.8529 12.6886 29.0904 12.5416C29.3129 12.4028 29.6454 12.2223 29.8879 12.2241C30.0429 12.2251 30.1579 12.2893 30.2654 12.3803C30.3704 12.4686 30.4654 12.5813 30.5704 12.6773C30.7028 12.9588 30.6704 13.2148 30.6079 13.4905C30.5429 13.763 30.4504 14.0515 30.4654 14.3812C30.4504 14.4007 30.3979 14.4317 30.3429 14.467C30.3129 14.4855 30.2829 14.5067 30.2629 14.543C30.2429 14.5792 30.2454 14.6295 30.2704 14.673L30.2929 14.7127L30.3329 14.6942C30.4529 14.6415 30.5454 14.57 30.6379 14.519C30.7303 14.468 30.8228 14.4347 30.9578 14.4485L31.0228 14.455L31.0128 14.3902C31.0053 14.341 30.9678 14.303 30.9278 14.2865C30.8903 14.2697 30.8453 14.2675 30.8028 14.269C30.7453 14.271 30.6903 14.2805 30.6454 14.2887C30.6928 13.4693 31.1128 12.8465 31.5728 12.3601C31.9228 12.0906 32.2453 11.7986 32.5953 11.5129C33.0202 11.1661 33.3902 10.7211 33.8602 10.4944L33.9077 10.4707L33.8802 10.4242C33.7827 10.2574 33.6502 10.1404 33.5552 9.99693L33.4802 9.88244L33.4627 10.0184C33.4202 10.3797 33.3502 10.5694 33.1502 10.7909C32.9252 11.0429 32.5278 11.2954 32.1553 11.6111C31.9403 11.7948 31.7553 11.9923 31.5553 12.1391C31.3553 12.2858 31.1428 12.3828 30.8653 12.3741C30.3779 12.3586 30.1254 12.1353 29.9904 11.7918C29.8529 11.4486 29.8479 10.9811 29.8879 10.5034C29.9529 9.75644 29.9479 9.01423 29.7629 8.38526L29.7504 8.34726L29.7104 8.34976C29.6304 8.35451 29.5904 8.32976 29.5379 8.29676C29.4829 8.26376 29.4154 8.22177 29.3129 8.22477ZM34.9127 11.0981C34.8952 11.0979 34.8777 11.0981 34.8602 11.0991L34.8152 11.1021L34.8127 11.1461C34.8127 11.1466 34.8102 11.1481 34.8077 11.1544C34.7977 11.1656 34.7877 11.1919 34.7877 11.2196C34.7877 11.2174 34.7877 11.2149 34.7902 11.2126L34.7877 11.2326V11.2196C34.6827 11.6466 34.4002 11.8418 34.1052 12.1121C33.4652 12.6956 32.9302 13.516 32.7403 14.5395C32.6628 14.9462 32.6328 15.4024 32.4503 15.6152C32.2828 15.7999 32.0453 15.8897 31.7653 15.9487C31.4853 16.0076 31.1628 16.0344 30.8278 16.0991C30.4854 16.1659 30.2029 16.3114 29.9304 16.4471C29.6554 16.5831 29.3929 16.7096 29.0829 16.7486C28.7254 16.7934 28.4605 16.7629 28.1705 16.6909C28.2955 16.4871 28.3155 16.2286 28.3255 15.9662C28.3355 15.6759 28.3305 15.3782 28.4105 15.1397C28.448 15.0344 28.508 14.9612 28.5704 14.8842C28.6329 14.807 28.6954 14.724 28.7129 14.6062L28.7204 14.5535L28.6679 14.5487C28.6129 14.544 28.5655 14.5645 28.5255 14.595C28.488 14.6255 28.4555 14.6652 28.428 14.7075C28.398 14.753 28.3705 14.8005 28.343 14.844C28.3355 14.794 28.328 14.7462 28.318 14.696C28.3005 14.6052 28.2705 14.5155 28.1955 14.4587L28.133 14.4115L28.1155 14.488C28.093 14.5957 28.1155 14.7057 28.1455 14.8137C28.173 14.9197 28.2055 15.0242 28.213 15.1204C28.1055 15.4387 28.088 15.7717 28.0555 16.0724C28.0205 16.3776 27.9705 16.6466 27.8005 16.8404C27.533 17.1481 27.083 17.1891 26.578 17.2993C25.9681 17.4331 25.4409 17.7443 24.7876 17.7731C24.2327 17.7976 23.8444 17.7243 23.4552 17.6003C23.3472 17.5661 23.2387 17.5033 23.1277 17.4538C23.0167 17.4043 22.8992 17.3671 22.7772 17.3998L22.7367 17.4106L22.7402 17.4521C22.75 17.5738 22.8115 17.6571 22.8855 17.7126C22.9037 17.7266 22.9237 17.7361 22.9432 17.7478C22.6532 17.7646 22.443 17.8581 22.2095 17.9173C22.2788 17.8391 22.37 17.7666 22.4572 17.6876C22.5815 17.5751 22.6972 17.4403 22.69 17.2463L22.6882 17.2008L22.643 17.1981C22.5122 17.1908 22.4235 17.2623 22.3665 17.3426C22.3092 17.4228 22.2713 17.5131 22.227 17.5658C21.8928 17.9626 21.445 18.2703 21.0126 18.588C20.7653 18.4318 20.4413 18.3795 20.1031 18.3558C19.7619 18.332 19.4066 18.3363 19.1019 18.301C19.0779 18.244 19.0679 18.183 19.0612 18.1188C19.0539 18.0458 19.0487 17.9691 19.0094 17.8986L18.9957 17.8738L18.9672 17.8731C18.7849 17.8676 18.6737 17.9371 18.5999 18.0286C18.5259 18.1198 18.4814 18.2265 18.4032 18.3148C17.2862 19.58 15.5301 20.4584 13.5817 20.8484C13.4827 20.8684 13.3579 20.8714 13.2419 20.8904C13.1259 20.9092 13.0114 20.9454 12.9492 21.0462L12.9122 21.1062L12.9809 21.1212C13.1302 21.1542 13.2964 21.1204 13.4539 21.0849C13.5784 21.0569 13.6974 21.0287 13.7919 21.0227C13.7562 21.0909 13.6994 21.1559 13.6427 21.2227C13.5684 21.3099 13.4917 21.4026 13.4917 21.5224V21.5926L13.5582 21.5696C13.7167 21.5144 13.8059 21.3896 13.8779 21.2656C13.9474 21.1457 14.0056 21.0249 14.0914 20.9439C14.7889 20.8454 15.4093 20.5902 15.9338 20.3944C16.5445 20.1665 17.0587 19.932 17.5657 19.641C17.7635 19.5277 18.0162 19.3967 18.2214 19.2372C18.4497 19.06 18.6634 18.8425 18.8292 18.796C18.9872 18.7518 19.4024 18.7343 19.7989 18.7515C19.9971 18.76 20.1926 18.7768 20.3526 18.8008C20.5128 18.825 20.6403 18.86 20.6891 18.8903C20.7873 18.9515 20.8176 19.0373 20.8513 19.139C20.8851 19.241 20.9208 19.3595 21.0371 19.439L21.0638 19.4572L21.0913 19.4405C21.1551 19.402 21.1761 19.332 21.1876 19.267C21.1983 19.2062 21.2023 19.1455 21.2123 19.0963C21.639 18.6363 22.1998 18.211 22.994 18.1478C23.5997 18.0995 24.2654 18.2423 24.9181 18.1978C25.5141 18.1573 25.9906 17.9076 26.4256 17.7966C26.6805 17.7318 26.943 17.7131 27.2005 17.6466C27.603 17.5433 27.923 17.3121 28.178 17.1251C28.448 17.1656 28.8229 17.2131 29.1954 17.1728C29.7654 17.1108 30.1429 16.7636 30.6804 16.5704C31.0628 16.4334 31.5203 16.4156 31.9203 16.3414C32.1228 16.3041 32.3078 16.2526 32.4628 16.1604C32.5703 16.0979 32.6578 16.0139 32.7278 15.9069C32.7478 16.0256 32.7902 16.1356 32.8577 16.2196C32.9577 16.3459 33.1152 16.4121 33.2827 16.3446L33.3102 16.3326L33.3127 16.3011C33.3227 16.1244 33.2652 16.0041 33.2102 15.8944C33.1527 15.7844 33.0977 15.6837 33.0877 15.5204C33.0777 15.3587 33.0952 15.1747 33.1127 15.0037C33.2727 13.4718 34.2227 12.1546 35.5976 11.8731L35.6326 11.8658L35.6376 11.8306C35.6576 11.6726 35.5976 11.5789 35.5576 11.5006L35.5426 11.4759L35.5151 11.4741C35.4026 11.4674 35.2976 11.5011 35.2076 11.5346C35.1701 11.5489 35.1376 11.5619 35.1051 11.5731C35.1251 11.5401 35.1451 11.5069 35.1651 11.4699C35.2051 11.3989 35.2376 11.3134 35.2376 11.1989V11.1571L35.1976 11.1499C35.1101 11.1346 35.0276 11.1004 34.9127 11.0981ZM29.6854 11.3489C29.6854 11.3859 29.6854 11.4224 29.6904 11.4564C29.7229 11.6934 29.8529 11.8956 29.8979 12.0723C29.6404 12.0671 29.4179 12.1698 29.2079 12.2606C29.4029 11.9943 29.5779 11.7051 29.6854 11.3489ZM8.5934 12.3083C8.49015 12.3086 8.38766 12.3271 8.30366 12.3508C7.94018 12.4541 7.44745 12.7303 7.16597 12.9063C7.08097 12.9598 7.02247 13.0203 6.97023 13.0658C6.91798 13.1113 6.87473 13.1408 6.81123 13.149C6.60474 13.176 6.413 13.061 6.20651 12.9258C6.00027 12.7908 5.78203 12.6371 5.52029 12.6238C5.3208 12.6138 5.14306 12.6501 4.98032 12.6793C4.81783 12.7086 4.67083 12.7301 4.52834 12.6998C4.47609 12.6888 4.43585 12.6608 4.3821 12.6306C4.32835 12.6003 4.2601 12.5708 4.16636 12.5738L4.11136 12.5758L4.11861 12.6306C4.15911 12.9323 4.06961 13.1283 3.91662 13.2803C3.76338 13.432 3.54189 13.536 3.3239 13.6275L3.3109 13.633L3.3029 13.6443C3.2784 13.6783 3.27165 13.72 3.2794 13.7543C3.28715 13.7883 3.30465 13.8153 3.32215 13.8395C3.3564 13.8875 3.38865 13.9295 3.39289 13.9535C3.38615 14.311 3.2189 14.582 3.03389 14.852C2.84797 15.1234 2.64376 15.3927 2.59393 15.7412C2.51106 16.3214 2.8078 16.8209 3.11226 17.0623C3.3844 17.2781 3.76413 17.3823 4.01137 17.5866C4.04986 17.6186 4.07686 17.6613 4.11386 17.7071C4.15061 17.7526 4.20111 17.7998 4.2801 17.8213L4.3411 17.8378L4.3431 17.7746C4.3481 17.6243 4.2681 17.5136 4.17011 17.4353C4.07211 17.3573 3.95487 17.3041 3.86787 17.2546C3.59489 17.0988 3.29115 16.9399 3.07551 16.7164C2.85977 16.4926 2.72823 16.2094 2.79285 15.7807C2.84382 15.4427 3.07143 15.1797 3.2719 14.8707C3.46589 14.5715 3.62763 14.2235 3.54864 13.735C3.78063 13.6813 3.95462 13.564 4.08361 13.4075C4.21261 13.251 4.2991 13.058 4.37335 12.8563C4.63959 12.9273 4.89607 12.898 5.13106 12.8685C5.37955 12.8373 5.60304 12.811 5.79828 12.8948C6.08602 13.0183 6.33551 13.3045 6.65249 13.4118C6.71649 13.5548 6.67949 13.812 6.66774 14.048C6.66149 14.1695 6.66324 14.2857 6.70299 14.3835C6.74299 14.4812 6.82923 14.556 6.96123 14.5732L7.06497 14.5867L7.01047 14.4975C6.77848 14.1175 6.84473 13.7643 7.03922 13.4595C7.23321 13.1555 7.55945 12.9075 7.83743 12.7701C7.99693 12.7348 8.13692 12.6471 8.28391 12.5961C8.35566 12.5713 8.44591 12.5603 8.53515 12.5388C8.6244 12.5176 8.71589 12.4841 8.78089 12.4058L8.83289 12.3433L8.75364 12.3253C8.71589 12.3166 8.6769 12.3116 8.63765 12.3096C8.6229 12.3088 8.60815 12.3083 8.5934 12.3083ZM31.1703 12.5241C31.1253 12.5896 31.0778 12.6606 31.0303 12.7353C30.9678 12.83 30.9003 12.9195 30.8328 12.9983C30.8228 12.8035 30.7678 12.6496 30.6828 12.5258C30.8403 12.5536 31.0178 12.5576 31.1703 12.5241ZM4.3466 14.7235L4.34435 14.771C4.33885 14.8757 4.3051 14.9442 4.2551 15.0024C4.20536 15.0607 4.13711 15.1077 4.06561 15.1574L4.01312 15.1939L4.06136 15.2359C4.40535 15.5377 4.66208 15.9402 5.01232 16.2619C4.91857 16.5156 4.91582 16.7246 4.97682 16.8991C5.04057 17.0813 5.16781 17.2243 5.31055 17.3536C5.59629 17.6123 5.94302 17.8228 6.04602 18.1625L6.14376 18.1508C6.15651 17.9253 6.07027 17.7531 5.94627 17.6146C5.82253 17.4763 5.66254 17.3676 5.51879 17.2546C5.3753 17.1413 5.24906 17.0248 5.18431 16.8779C5.12381 16.7404 5.11631 16.5709 5.20081 16.3376C5.3288 16.3819 5.4918 16.4484 5.66429 16.4926C5.85603 16.5414 6.05777 16.5616 6.21926 16.4664L6.34501 16.3921L6.20026 16.3736C5.70704 16.3109 5.29355 16.1734 5.00207 15.9227C4.71033 15.6719 4.53484 15.3082 4.51909 14.772L4.51784 14.7235H4.3466ZM2.62871 17.2096L2.50391 17.2506C2.30632 17.3153 2.1683 17.4646 2.08671 17.6483C2.00509 17.8321 1.97719 18.0511 1.99399 18.2683C2.01079 18.4853 2.07241 18.7008 2.17488 18.8773C2.27735 19.0535 2.42222 19.1922 2.60548 19.2457L2.6857 19.2692L2.6684 19.1875C2.64846 19.093 2.58528 19.034 2.52404 18.9873C2.46279 18.9403 2.40174 18.901 2.35997 18.8435C2.21248 18.6405 2.11688 18.2738 2.16893 17.9561C2.19113 17.8206 2.25237 17.7233 2.32785 17.6283C2.40332 17.5333 2.49356 17.4423 2.56276 17.3233L2.62871 17.2096ZM35.4996 17.5871L35.3397 17.6798C34.7047 18.0493 33.9172 18.2665 32.9148 18.273L32.9048 18.372C33.5547 18.498 34.1672 18.3375 34.6572 18.1703C34.9322 18.0756 35.2722 17.9913 35.4097 17.7476L35.4996 17.5871ZM37.0646 17.9168L37.0471 17.9481C36.8871 18.2233 36.5271 18.5053 36.0946 18.7125C35.6646 18.9195 35.1672 19.0533 34.7397 19.0478C34.4397 19.044 34.1572 18.9125 33.8297 18.9738L33.6672 19.0043L33.8197 19.0688C34.4522 19.3357 35.1572 19.2947 35.7846 19.1013C36.3971 18.9128 36.9346 18.5805 37.2721 18.236C37.607 18.4638 38.077 18.4363 38.5345 18.408C39.007 18.3788 39.467 18.352 39.7594 18.5635L39.8319 18.6163L39.8394 18.5263C39.8419 18.471 39.8219 18.421 39.7894 18.3813C39.7569 18.3418 39.7169 18.31 39.672 18.281C39.582 18.2235 39.4795 18.1765 39.4195 18.1323L39.4095 18.1253L39.397 18.1235C39.017 18.0683 38.697 18.164 38.412 18.173C37.922 18.1885 37.542 18.0133 37.0996 17.9241L37.0646 17.9168ZM31.6698 18.2695C31.6573 18.27 31.6448 18.2713 31.6323 18.2738L31.5898 18.2813V18.3245C31.5923 18.3458 31.5873 18.3508 31.5748 18.3705L31.5723 18.3733L31.5698 18.376C31.4298 18.6675 31.1974 18.8605 30.9099 19.0165C30.6224 19.1725 30.2799 19.2897 29.9224 19.426C28.5075 19.968 26.6151 20.5829 24.9936 20.5227C24.9254 20.5202 24.7677 20.4847 24.6229 20.4802C24.5504 20.4779 24.4794 20.4827 24.4179 20.5087C24.3564 20.5344 24.3049 20.5887 24.2924 20.6644L24.2894 20.6827L24.2992 20.6984C24.3342 20.7564 24.3944 20.7844 24.4544 20.7927C24.5144 20.8009 24.5777 20.7939 24.6412 20.7857C24.7367 20.7732 24.8319 20.7602 24.9042 20.7714C24.8654 20.8129 24.8177 20.8607 24.7774 20.9177C24.7489 20.9584 24.7252 21.0049 24.7262 21.0587C24.7272 21.1122 24.7559 21.1662 24.8099 21.2109L24.8407 21.2364L24.8722 21.2122C24.9804 21.1289 25.0474 21.0297 25.1119 20.9512C25.1761 20.8727 25.2336 20.8167 25.3271 20.7964C25.7926 20.6962 26.2951 20.7164 26.7726 20.6469C27.6225 20.5239 28.5275 20.2132 29.3074 19.945C29.8624 19.7535 30.5174 19.518 31.0624 19.2682C31.3023 19.157 31.4673 19.0333 31.6198 19.0228C31.6798 19.0185 31.7723 19.0455 31.8673 19.0658C31.9598 19.086 32.0648 19.1008 32.1473 19.0373L32.1598 19.026L32.1648 19.0083C32.1773 18.9415 32.1473 18.879 32.0973 18.8473C32.0498 18.8155 31.9898 18.8015 31.9248 18.7905C31.8273 18.7738 31.7273 18.7615 31.6548 18.744C31.7373 18.6485 31.8348 18.5525 31.8648 18.3813L31.8698 18.352L31.8473 18.3338C31.8148 18.3088 31.7698 18.277 31.7048 18.2705C31.6923 18.2695 31.6823 18.269 31.6698 18.2695ZM3.38117 18.404C3.35592 18.4045 3.33092 18.4055 3.30617 18.4075C3.20718 18.4155 3.11436 18.436 3.03946 18.476C2.96459 18.5163 2.90582 18.581 2.89509 18.6668L2.88694 18.7318L2.95182 18.7223C3.02801 18.7115 3.09506 18.6733 3.16041 18.6398C3.22568 18.6063 3.28867 18.5773 3.34842 18.5728C3.64791 18.5498 3.8089 18.6888 3.95439 18.8848C4.09989 19.081 4.21663 19.3342 4.41087 19.5097C4.55511 19.6402 4.73761 19.6687 4.9166 19.6845C5.09559 19.7 5.27408 19.7042 5.42457 19.7687C5.45957 19.7835 5.52007 19.829 5.57407 19.8802C5.62806 19.9315 5.67856 19.9895 5.70281 20.0255C5.71881 20.0495 5.74231 20.1287 5.77206 20.205C5.80181 20.2812 5.8418 20.3657 5.92805 20.3949L5.9968 20.4182L5.99405 20.3457C5.98105 19.9885 5.70481 19.6277 5.35533 19.549C5.17859 19.509 5.02909 19.5095 4.8996 19.4947C4.7701 19.48 4.66261 19.4527 4.55161 19.3595C4.41162 19.242 4.33238 19.1038 4.24313 18.9555C4.15388 18.807 4.05439 18.6493 3.8754 18.5085L3.8719 18.5058L3.86815 18.5038C3.7604 18.4463 3.60941 18.412 3.45717 18.4053C3.43167 18.404 3.40642 18.4038 3.38117 18.404ZM35.9346 20.4107C36.1771 20.4132 36.4146 20.4354 36.6521 20.4959C36.8521 20.5467 37.0771 20.6357 37.2621 20.7432C37.4496 20.8507 37.5945 20.9792 37.6445 21.0922C37.667 21.1499 37.687 21.2532 37.6895 21.3536C37.6945 21.4544 37.6845 21.5554 37.667 21.6059C37.597 21.8041 37.3721 21.9399 37.0646 22.0374C36.7571 22.1346 36.3721 22.1921 36.0071 22.2479C35.3347 22.3503 34.4822 22.4228 33.8622 22.4723C32.6923 22.5656 31.5848 22.4893 30.5824 22.6731C29.6024 22.8521 28.815 23.1951 28.1175 23.7515C27.89 23.8028 27.7125 23.903 27.535 23.9943C27.41 23.9565 27.28 23.9453 27.1825 23.9178C27.13 23.903 27.09 23.884 27.0625 23.8583C27.0375 23.8325 27.0201 23.8003 27.0176 23.7438C27.0126 23.698 27.04 23.637 27.0975 23.57C27.1525 23.503 27.235 23.4323 27.3275 23.365C27.51 23.2306 27.73 23.1096 27.865 23.0416C28.9225 22.5003 30.2949 22.2021 31.5523 21.9211C32.4248 21.7259 33.3397 21.5361 34.2722 21.4219C35.2222 21.3054 36.2296 21.1969 37.0521 20.9962L37.0346 20.8979C34.3947 21.2122 31.3198 21.5996 28.925 22.4501C28.5275 22.5906 28.1825 22.7098 27.7675 22.9278C27.625 23.0023 27.4075 23.1093 27.2175 23.2338C27.1225 23.2961 27.035 23.3625 26.9676 23.4338C26.9001 23.5048 26.8501 23.5818 26.8426 23.667C26.8251 23.8325 26.9001 23.962 27.0225 24.0353C27.105 24.0835 27.205 24.109 27.3175 24.1188C26.9101 24.3305 26.3626 24.3285 25.8001 24.2228C25.6234 24.1895 25.4659 24.1803 25.3281 24.1483C25.0561 24.0848 24.6837 23.8983 24.3859 23.7758C24.2257 23.7098 24.0277 23.6475 23.8652 23.575C23.703 23.5023 23.5857 23.4173 23.5655 23.3351C23.5427 23.2418 23.554 23.1646 23.5882 23.0923C23.6222 23.0198 23.6812 22.9531 23.755 22.8911C23.9022 22.7671 24.1067 22.6651 24.2682 22.5646C24.6224 22.3448 24.8987 22.1214 25.2106 21.9936C25.9801 21.6784 26.8001 21.4734 27.6975 21.3469C28.5725 21.2239 29.5024 21.2067 30.5949 21.0972C31.5448 21.0022 32.3823 20.7464 33.2498 20.5967C33.6697 20.5244 34.1372 20.4899 34.6422 20.4724C35.1022 20.4567 35.5271 20.4062 35.9346 20.4107ZM36.3896 20.5224C34.5572 20.5579 32.9298 20.8989 31.2424 21.2884L31.1949 21.2561C31.1049 21.1952 31.0149 21.1832 30.9349 21.1894C30.8524 21.1957 30.7799 21.2167 30.7124 21.2227C29.2924 21.3424 27.52 21.8779 26.2976 22.3758C26.0051 22.4948 25.6414 22.6318 25.3664 22.8358C25.2289 22.9378 25.1131 23.0576 25.0424 23.2021C24.9719 23.3468 24.9486 23.5163 24.9929 23.7083L24.9966 23.7248L25.0099 23.7355C25.1999 23.8925 25.4651 23.9623 25.7601 23.9965L25.9151 24.0145L25.8001 23.9098C25.6876 23.8073 25.5171 23.7843 25.3771 23.7413C25.3069 23.7198 25.2446 23.6943 25.1999 23.6593C25.1551 23.6245 25.1264 23.5825 25.1161 23.5145C25.0996 23.4053 25.1319 23.3093 25.1996 23.2171C25.2674 23.1248 25.3711 23.0393 25.4901 22.9633C25.7276 22.8116 26.0251 22.6981 26.2101 22.6181C27.585 22.0261 29.1874 21.5606 30.8274 21.3836C30.6624 21.4224 30.4974 21.4594 30.3299 21.4986C29.4699 21.6981 28.595 21.9249 27.795 22.3021C27.415 22.4813 27.1175 22.6568 26.7401 22.9053C26.5901 23.0023 26.3751 23.1276 26.1951 23.2716C26.0151 23.4158 25.8626 23.5808 25.8676 23.773C25.8701 23.955 25.9651 24.098 26.1151 24.1815C26.2651 24.265 26.4676 24.2943 26.6976 24.2715L26.8851 24.253L26.7126 24.1763C26.5776 24.1165 26.4026 24.1 26.2651 24.0515C26.1976 24.0273 26.1426 23.996 26.1026 23.9535C26.0651 23.9108 26.0401 23.8568 26.0426 23.7723C26.0426 23.717 26.0726 23.649 26.1301 23.5765C26.1876 23.504 26.2701 23.4285 26.3601 23.3561C26.5426 23.2111 26.7601 23.0783 26.8951 22.9888C27.275 22.7358 27.6025 22.5633 27.9875 22.3928C29.2599 21.8279 30.5874 21.6934 31.9798 21.2954C33.3198 20.9127 34.9072 20.8119 36.3971 20.6222L36.3896 20.5224ZM23.5657 20.7704V20.7727H23.5645C23.5395 20.7739 23.5267 20.7894 23.521 20.7977C23.5155 20.8059 23.5135 20.8119 23.5115 20.8177C23.5077 20.8289 23.5055 20.8392 23.5035 20.8489C23.5025 20.8542 23.5017 20.8574 23.5007 20.8617C22.9832 21.0952 22.4158 21.4424 21.8333 21.5481C21.3831 21.6299 20.9813 21.5454 20.5911 21.4746C20.2214 21.4076 19.8596 21.3551 19.4864 21.4806C19.4807 21.4371 19.4727 21.3961 19.4657 21.3614C19.4572 21.3204 19.4559 21.2899 19.4607 21.2636C19.4844 21.2594 19.5109 21.2596 19.5467 21.2559C19.5702 21.2534 19.5994 21.2454 19.6227 21.2234C19.6459 21.2014 19.6591 21.1704 19.6666 21.1319L19.6689 21.1209L19.6661 21.1099C19.6392 21.0059 19.5617 20.9412 19.4712 20.9162C19.3804 20.8912 19.2764 20.8979 19.1712 20.9179C18.9607 20.9579 18.7447 21.0534 18.6454 21.1027L18.6179 21.1164L18.6177 21.1472C18.6174 21.2094 18.6377 21.2614 18.6714 21.2974C18.7052 21.3336 18.7482 21.3536 18.7909 21.3681C18.8677 21.3939 18.9442 21.4079 18.9952 21.4319C18.9984 21.4619 19.0059 21.4876 19.0124 21.5024C19.0199 21.5191 19.0224 21.5289 19.0204 21.5466C18.2572 22.1991 17.2773 22.9593 16.1538 23.2991C15.6131 23.4628 14.9109 23.5693 14.2974 23.522C13.7617 23.4808 13.3027 23.2846 12.8607 23.1251L12.7822 23.0968L12.7942 23.1793C12.8197 23.3535 12.756 23.4745 12.663 23.5948C12.5702 23.7153 12.4472 23.8278 12.374 23.9745L12.3245 24.0743L12.432 24.0453C12.6075 23.9975 12.716 23.8773 12.7962 23.745C12.8685 23.6258 12.9235 23.4975 12.9897 23.3873C14.3547 24.0973 16.3071 23.602 17.441 23.0166C17.7802 22.8413 18.0675 22.6616 18.3702 22.4641C18.6772 22.2639 18.9877 22.0374 19.2894 21.8924C19.6499 21.7189 20.1914 21.6726 20.6514 21.7736C20.8816 21.8241 21.0911 21.9111 21.2488 22.0331C21.4066 22.1554 21.5123 22.3104 21.5428 22.5048C21.5806 22.7453 21.5181 23.0203 21.3996 23.2298C21.2813 23.4393 21.1113 23.5768 20.9438 23.572C20.8823 23.5703 20.8711 23.5578 20.8408 23.5323C20.8103 23.507 20.7641 23.4675 20.6784 23.4483L20.6509 23.442L20.6314 23.4625C20.5831 23.5128 20.5566 23.565 20.5534 23.617C20.5501 23.669 20.5706 23.7158 20.5996 23.753C20.6529 23.8218 20.7336 23.8675 20.8001 23.9048C20.8136 23.9675 20.8278 24.0223 20.8456 24.0613C20.8656 24.106 20.8893 24.1395 20.9243 24.1583C20.9593 24.177 21.0023 24.1723 21.0338 24.156C21.0653 24.1398 21.0908 24.1148 21.1158 24.0853C21.1658 24.0265 21.2128 23.947 21.2578 23.8705C21.3031 23.794 21.3468 23.72 21.3808 23.6788C21.5708 23.4495 21.7888 23.3973 21.9543 23.2973C22.0595 23.3058 22.1368 23.2763 22.1943 23.2391L22.2228 23.2206L22.2163 23.1873C22.1963 23.0876 22.1423 23.0251 22.0943 22.9788C22.0463 22.9328 22.0073 22.9008 21.9888 22.8538C21.899 22.6263 21.9573 22.3921 22.0745 22.1821C22.1918 21.9724 22.368 21.7919 22.4985 21.6861C22.9365 21.3316 23.5965 21.1249 23.9449 20.8889L23.9117 20.7977C23.807 20.8084 23.7355 20.7767 23.6175 20.7722L23.5657 20.7704ZM23.4997 20.8674C23.4992 20.8689 23.4987 20.8717 23.4985 20.8729C23.498 20.8754 23.4972 20.8769 23.498 20.8754C23.4982 20.8747 23.4972 20.8717 23.4997 20.8674ZM29.6374 21.2416L29.4899 21.2474C28.0675 21.3031 26.4826 21.7004 25.3234 22.1506C24.9194 22.3076 24.4314 22.5013 24.2077 22.7106C24.0859 22.8246 24.0189 22.9431 24.0022 23.0596C23.9852 23.1758 24.0194 23.2871 24.0874 23.3805C24.2237 23.5678 24.4889 23.6928 24.7869 23.7218L24.9129 23.734L24.8292 23.639C24.7172 23.5115 24.5382 23.476 24.3987 23.4215C24.3287 23.394 24.2692 23.3631 24.2294 23.3218C24.1897 23.2808 24.1659 23.2308 24.1667 23.1476C24.1672 23.1101 24.1922 23.0458 24.2294 22.9858C24.2667 22.9256 24.3147 22.8678 24.3512 22.8336C24.7264 22.4803 25.5894 22.2019 26.3326 21.9701C27.1125 21.7264 27.96 21.5449 28.695 21.4721C28.8175 21.4601 28.975 21.4646 29.1249 21.4541C29.2749 21.4436 29.4199 21.4204 29.5224 21.3359L29.6374 21.2416ZM36.9371 21.5974C34.2847 21.6841 31.7023 21.9434 29.5774 22.6741V22.6743C29.5749 22.6746 29.5749 22.6746 29.5749 22.6748L29.6049 22.7701C31.6798 22.1494 34.4397 21.8781 36.9421 21.6971L36.9371 21.5974ZM37.4271 22.0559C37.5445 22.1699 37.5821 22.2766 37.572 22.3828C37.5596 22.4958 37.4921 22.6136 37.3871 22.7268C37.1821 22.9533 36.8446 23.1543 36.6396 23.2793C35.5121 23.9605 34.0872 24.569 32.8148 24.9692C32.0923 24.7192 31.3098 24.5115 30.4849 24.3688C32.8923 24.2355 34.9397 23.7403 36.5171 22.7646L36.6546 22.6791L36.4921 22.6723C36.4921 22.6718 36.4896 22.6703 36.4846 22.6658C36.4721 22.6566 36.4396 22.6421 36.4071 22.6478L36.3696 22.6541L36.3671 22.6723C36.3621 22.6726 36.3546 22.6731 36.3421 22.6723L36.3246 22.6711L36.3096 22.6818C35.9271 22.9631 35.4272 23.1796 34.8972 23.375C34.0122 23.7013 33.0648 23.9178 32.0323 24.0725C31.5148 24.1503 30.9599 24.1318 30.4274 24.2735L30.4424 24.361C29.5374 24.2075 28.5775 24.138 27.575 24.1868C28.41 23.801 29.055 23.2616 30.0799 22.9701C31.1724 22.6588 32.4373 22.7358 33.7922 22.6471C34.9997 22.5681 36.4821 22.4713 37.4271 22.0559ZM37.3996 22.3696L37.3821 22.3846C36.1046 23.5103 34.2622 24.0845 32.3048 24.5482L32.3223 24.6462C32.3248 24.646 32.3248 24.6457 32.3273 24.6455C34.3172 24.3213 36.1471 23.6185 37.4721 22.5358L37.4921 22.5183L37.4896 22.4906C37.4871 22.4833 37.4896 22.4656 37.4871 22.4431C37.4846 22.4318 37.4821 22.4178 37.4721 22.4028C37.4621 22.3881 37.4396 22.3753 37.4221 22.3726L37.3996 22.3696ZM35.9921 22.4966C35.9896 22.4968 35.9846 22.4973 35.9821 22.4978L35.9746 22.4988L35.9696 22.5008C34.3172 23.1841 32.1623 23.847 29.9624 23.947C29.9124 23.9493 29.8274 23.933 29.7424 23.9333C29.6574 23.9338 29.5599 23.956 29.4999 24.0435L29.4424 24.1268L29.5424 24.1218C32.1023 23.9995 34.2222 23.4368 36.0846 22.6178L36.0671 22.5223C36.0671 22.5223 36.0721 22.5253 36.0596 22.5158C36.0471 22.5078 36.0221 22.4958 35.9921 22.4966ZM34.5572 22.5981C34.1222 22.6783 33.7447 22.7393 33.3272 22.8488C32.9998 22.9348 32.6773 23.0551 32.3548 23.1231C31.4673 23.3108 30.4974 23.4583 29.5899 23.472L29.5874 23.5718C31.4723 23.689 33.0448 23.0791 34.5772 22.6956L34.5572 22.5981ZM37.4846 22.8633C37.952 23.2796 38.2495 24.0708 37.9195 24.7757C37.897 24.8222 37.857 24.8672 37.8145 24.9147C37.7695 24.9622 37.7245 25.012 37.6945 25.0757C37.5896 25.3037 37.5595 25.5559 37.5021 25.7737C37.4446 25.9937 37.3646 26.1712 37.1671 26.2762C36.9146 26.4112 36.5946 26.4137 36.2646 26.3612C35.9371 26.3062 35.6021 26.1987 35.3272 26.1237C34.9497 26.0187 34.5672 25.9387 34.3372 25.8262C33.8947 25.6107 33.5197 25.2657 33.0548 25.0537C34.7247 24.5202 36.2671 23.8565 37.4846 22.8633ZM37.4296 23.448C37.0746 23.5248 36.5796 23.6695 36.1996 23.7995L36.2196 23.8965C36.6996 23.8458 37.1096 23.7233 37.4621 23.5415L37.4296 23.448ZM37.5171 23.913L37.3996 23.9493C36.8671 24.1143 36.2146 24.1688 35.6071 24.2725L35.6096 24.3715C35.9946 24.4167 36.3596 24.3348 36.7221 24.2713C36.8521 24.2485 37.0096 24.2275 37.1471 24.1938C37.2821 24.16 37.4046 24.1188 37.4596 24.0205L37.5171 23.913ZM24.7304 24.113C24.8277 24.146 24.9142 24.1968 25.0199 24.2348C24.9936 24.2435 24.9671 24.252 24.9384 24.2608C24.8602 24.2853 24.7744 24.316 24.7244 24.395L24.7022 24.4302L24.7327 24.4585C24.7627 24.486 24.8029 24.4987 24.8374 24.4935C24.8722 24.4882 24.8987 24.4715 24.9234 24.4545C24.9724 24.4202 25.0169 24.381 25.0556 24.37C25.4569 24.254 25.7076 24.407 25.9401 24.6215C26.1701 24.8297 26.3701 25.0987 26.6501 25.2082C26.7701 25.6119 26.9001 26.0037 27.0051 26.4187C26.8276 26.4962 26.6301 26.5511 26.4401 26.5536C26.2376 26.5536 26.0501 26.5012 25.9001 26.3612C25.8276 26.2912 25.7226 26.1137 25.6061 25.9662C25.4939 25.8212 25.3116 25.5977 25.1429 25.3752C24.9739 25.1525 24.8179 24.9285 24.7627 24.8017C24.6837 24.6207 24.6859 24.3245 24.7304 24.113ZM27.945 24.2923C28.735 24.2863 29.6124 24.417 30.2324 24.5212C31.0724 24.6627 31.8398 24.7852 32.5223 25.0435C33.1123 25.2662 33.6197 25.6527 34.2072 25.9387C32.6873 25.3557 30.9124 25.0322 29.3324 24.5242L29.3174 24.5195L29.3024 24.5237C29.3024 24.5237 29.2899 24.524 29.2724 24.5287C29.2624 24.5312 29.2499 24.5352 29.2374 24.5472C29.2249 24.559 29.2174 24.579 29.2149 24.5955V24.631L29.2474 24.6435C30.6349 25.167 32.4298 25.4572 33.8247 25.9437C33.9997 26.0062 34.1922 26.1587 34.4222 26.1212L34.5772 26.0962C34.8597 26.1937 35.1747 26.2637 35.4771 26.3437C36.0321 26.4937 36.5346 26.6186 37.1296 26.5036C37.1671 26.6186 37.1471 26.7086 37.0996 26.7886C37.0446 26.8811 36.9496 26.9586 36.8596 27.0311C36.2746 27.4986 35.5171 27.9061 34.4422 27.8461C33.6122 27.8011 32.7173 27.5561 31.8773 27.3736C31.0749 27.1961 30.2874 26.8986 29.6099 26.6011C28.215 25.9837 26.9051 25.2847 25.9951 24.4407C26.2001 24.489 26.4101 24.5265 26.6726 24.4965C26.8426 24.477 26.9576 24.3948 27.075 24.371C27.3375 24.3178 27.635 24.2945 27.945 24.2923ZM25.4194 24.4345C25.4109 24.4347 25.4024 24.435 25.3941 24.4357C25.3264 24.441 25.2591 24.4635 25.1984 24.4945C25.0764 24.5565 24.9739 24.653 24.9227 24.748L24.8717 24.8425L24.9769 24.8207C25.1081 24.7937 25.1904 24.7185 25.2701 24.662C25.3496 24.6052 25.4241 24.5627 25.5634 24.5717L25.5919 24.4787C25.5374 24.4467 25.4786 24.4338 25.4194 24.4345ZM37.5821 24.5467L37.5746 24.549C36.6996 24.8205 35.3947 24.7412 34.4122 24.7967L34.4097 24.8965C35.3697 24.9957 36.5971 24.9495 37.4271 24.7455C37.4221 24.7462 37.4496 24.744 37.4771 24.7435C37.5046 24.7432 37.5371 24.7425 37.5671 24.7377C37.5995 24.7327 37.6345 24.7265 37.6595 24.6937C37.6745 24.6775 37.682 24.6532 37.6795 24.6312C37.677 24.6092 37.6695 24.5897 37.657 24.57L37.642 24.5467H37.6145H37.5821ZM27.9075 24.5492L27.86 24.6355C28.1325 24.861 28.57 24.9157 28.95 25.0442C30.9674 25.7262 32.8323 26.4837 35.1572 26.7961C35.5196 26.8436 35.8871 26.9386 36.2671 26.9211L36.2721 26.8211C34.6897 26.5861 33.2698 26.3262 31.9323 25.8737C30.5824 25.4185 29.2374 24.9707 27.9075 24.5492ZM25.7251 24.7707C25.7101 24.771 25.6926 24.7715 25.6751 24.7725C25.6314 24.775 25.5871 24.78 25.5441 24.7877C25.3721 24.8187 25.2144 24.8912 25.1471 25.0242L25.0731 25.1702L25.2159 25.0905C25.3784 24.9997 25.7301 24.896 26.0376 24.9215L26.0601 24.825C25.9601 24.7875 25.8426 24.7697 25.7251 24.7707ZM27.2425 24.777L27.24 24.8452C27.24 24.875 27.2475 24.9037 27.265 24.926C27.28 24.948 27.3025 24.9612 27.325 24.969C29.3024 25.6762 31.2249 26.5461 33.4797 26.9961C34.2297 27.1436 35.0122 27.2811 35.8396 27.2711L35.8446 27.1711C32.4623 26.9211 30.0074 25.7462 27.3075 24.7995L27.2425 24.777ZM34.1922 25.0467L34.1822 25.146C35.0472 25.2927 36.2196 25.5824 37.1521 25.3197L37.1321 25.2222C36.1471 25.3577 35.0897 25.094 34.1922 25.0467ZM27.0925 25.0717V25.1202C27.09 25.15 27.0975 25.1787 27.115 25.201C27.1275 25.2192 27.145 25.2305 27.1625 25.2385C28.615 26.1937 30.5549 26.7436 32.4773 27.2436C33.4047 27.4861 34.3697 27.7886 35.3722 27.6211L35.3647 27.5211C34.1922 27.5536 33.3597 27.2986 32.4273 27.0486C31.7748 26.8711 31.1249 26.7186 30.5299 26.5486C29.2999 26.1962 28.2 25.6567 27.2425 25.079L27.23 25.0717H27.0925ZM26.0501 25.106C26.0326 25.1057 26.0176 25.1057 26.0001 25.1065C25.9576 25.108 25.9151 25.1125 25.8726 25.1195C25.7051 25.1482 25.5491 25.22 25.4736 25.346L25.4006 25.4677L25.5339 25.4187C25.7026 25.3562 26.0651 25.2195 26.3326 25.2707L26.3651 25.1772C26.2726 25.1302 26.1626 25.1077 26.0501 25.106ZM26.8751 25.3737C28.46 26.2962 30.3024 27.2511 32.5298 27.6961C33.5922 27.9061 34.8597 28.2186 35.8771 27.8111C35.7771 28.0761 35.6096 28.2836 35.4996 28.5636C34.6422 29.2785 33.3323 30.026 31.7423 29.946C31.1224 29.9135 30.6374 29.7185 30.3299 29.3385L30.3199 29.3285L30.3049 29.3235C29.8674 29.1885 29.5449 28.846 29.1949 28.581C28.8375 28.3086 28.505 28.0336 28.2025 27.7111H28.2C27.575 27.1136 27.1025 26.3687 26.8751 25.3737ZM34.2597 25.4714L34.2522 25.4734C34.2322 25.479 34.2097 25.4937 34.1997 25.5144C34.1897 25.5354 34.1872 25.5574 34.1897 25.5784L34.1922 25.5819V25.5852C34.1972 25.6047 34.2122 25.6262 34.2322 25.6372C34.2522 25.6472 34.2722 25.6487 34.2922 25.6467H34.2897L34.2972 25.6462C34.2947 25.6464 34.2922 25.6464 34.2922 25.6467C34.7622 25.6387 35.1772 25.7662 35.5996 25.8712C36.0221 25.9762 36.4546 26.0587 36.9496 25.9462L36.9371 25.8462C35.9221 25.9112 35.2672 25.5157 34.2672 25.4717L34.2597 25.4714ZM26.1026 25.5417C26.0176 25.5439 25.9351 25.5572 25.8626 25.5902C25.7926 25.6229 25.7351 25.6804 25.7176 25.7612L25.6826 25.9162L25.8001 25.8087C25.8826 25.7337 26.0176 25.7162 26.1601 25.7187C26.3026 25.7212 26.4451 25.7437 26.5526 25.7212L26.6951 25.6902L26.5626 25.6264C26.4551 25.5754 26.2751 25.5372 26.1026 25.5417ZM27.26 25.8262L27.32 25.9662C27.3725 26.0862 27.51 26.1812 27.6725 26.2762C27.8325 26.3737 28.02 26.4636 28.1675 26.5411C30.0749 27.5411 32.3423 28.5211 35.1147 28.3711H35.1172L35.1147 28.2711C31.7873 28.2361 29.5074 27.1586 27.3925 25.9037L27.26 25.8262ZM26.4626 25.9062C26.4151 25.9062 26.3676 25.9112 26.3226 25.9237C26.2026 25.9512 26.0901 26.0187 26.0451 26.1287L26.0076 26.2237L26.1051 26.1937C26.1676 26.1762 26.2526 26.1387 26.3501 26.1062C26.4476 26.0712 26.5576 26.0462 26.6651 26.0462L26.6876 25.9512C26.6351 25.9262 26.5726 25.9112 26.5101 25.9062H26.4626ZM27.905 26.7211L28.01 26.8086C28.3875 27.1311 29.01 27.3886 29.5449 27.6161C31.0199 28.2486 32.9123 28.9035 34.8672 28.771L34.8647 28.671C32.2198 28.621 29.9124 27.7711 28.1425 26.7286L28.13 26.7211H27.905ZM27.175 26.7686C27.905 27.8186 28.87 28.631 29.9199 29.356C29.8524 29.4385 29.7499 29.4985 29.6299 29.5385C29.4924 29.5835 29.3324 29.5985 29.1924 29.596C28.4225 29.576 27.92 28.9185 27.815 28.2136L27.8125 28.1836L27.785 28.1736C27.5675 28.0936 27.355 27.9861 27.2075 27.8311C27.0625 27.6761 26.9776 27.4736 27.015 27.1786C27.035 27.0261 27.105 26.9136 27.175 26.7686ZM28.5275 27.3686L28.51 27.3711C28.5025 27.3736 28.485 27.3711 28.4625 27.3736C28.45 27.3761 28.4375 27.3786 28.4225 27.3886C28.4075 27.4011 28.395 27.4211 28.3925 27.4386L28.3875 27.4686L28.4125 27.4861C28.68 27.6861 29.0325 27.8911 29.3949 28.0661C29.7074 28.2186 30.0524 28.3661 30.3724 28.4936C31.0499 28.761 31.8248 29.051 32.5948 28.996L32.5973 28.896C30.9474 28.6885 29.6924 28.0886 28.5425 27.3786L28.5275 27.3686ZM28.81 27.9711L28.7925 28.0336C28.7875 28.0586 28.785 28.0836 28.795 28.1036C28.805 28.1261 28.82 28.1386 28.83 28.1436C28.8375 28.1486 28.84 28.1511 28.84 28.1511L28.8425 28.1761L28.8675 28.1911C29.2024 28.3636 29.5574 28.576 29.9474 28.741C30.3124 28.8985 30.7374 29.111 31.1699 29.071L31.1774 28.971C30.2799 28.7785 29.5749 28.3911 28.865 28.0036L28.81 27.9711ZM27.925 28.2711H27.91L27.86 28.2786L27.8675 28.3286C27.9225 28.701 28.095 29.031 28.3625 29.246C28.63 29.4585 28.995 29.556 29.4249 29.471L29.4124 29.371C29.015 29.4035 28.7075 29.306 28.4775 29.121C28.245 28.936 28.09 28.661 28.015 28.3336C28.01 28.3136 27.995 28.2911 27.9725 28.2811C27.9575 28.2736 27.9425 28.2711 27.925 28.2711ZM28.385 28.4961L28.2925 28.5261C28.315 28.7385 28.445 28.9135 28.605 29.031C28.7625 29.151 28.9475 29.216 29.0975 29.196L29.1075 29.0985C28.7725 28.9885 28.5475 28.7785 28.385 28.4961Z" fill="#E6E6E6"/>
</g>
<defs>
<clipPath id="clip0_2_95">
<rect width="40" height="32.5905" fill="white" transform="translate(0.666687 0.704834)"/>
</clipPath>
</defs>
</svg>
